# Blender v2.79 (sub 0) OBJ File: 'tiles.blend'
# www.blender.org
o Keep
v 0.028498 0.053912 -0.049140
v 0.034067 0.107353 -0.058785
v 0.068158 0.107353 -0.039103
v 0.057020 0.053912 -0.032673
v 0.057020 0.053912 0.011240
v 0.068158 0.107353 0.013383
v 0.068158 0.107353 0.039627
v 0.057020 0.053912 0.033196
v 0.028498 0.053912 0.049664
v 0.034067 0.107353 0.059309
v -0.000024 0.107353 0.078991
v -0.000024 0.053912 0.066131
v -0.038054 0.053912 0.044175
v -0.045478 0.107353 0.052748
v -0.068206 0.107353 0.039627
v -0.057068 0.053912 0.033196
v -0.045390 0.107353 -0.052276
v -0.068206 0.107353 -0.039103
v -0.068206 0.144713 -0.039103
v -0.045390 0.144713 -0.052276
v -0.057068 0.053912 -0.009783
v -0.068206 0.107353 -0.011744
v -0.057068 0.053912 -0.032673
v -0.037980 0.053912 -0.043694
v -0.000024 0.107353 -0.078468
v -0.000024 0.053912 -0.065607
v -0.054311 -0.103804 -0.062606
v -0.000024 -0.103804 -0.093949
v 0.040770 -0.103804 -0.070396
v 0.081565 -0.103804 -0.046843
v 0.081565 -0.103804 -0.015440
v 0.081565 -0.103804 0.015964
v 0.081565 -0.103804 0.047367
v 0.040770 -0.103804 0.070920
v -0.081613 -0.103804 -0.046843
v -0.054416 -0.103804 0.063069
v -0.081613 -0.103804 0.047367
v -0.081613 -0.103804 -0.014105
v -0.000024 -0.103804 0.094472
v -0.027220 -0.103804 0.078770
v -0.041230 0.031509 -0.047458
v -0.000024 0.031509 -0.071248
v -0.061953 0.031509 -0.010643
v -0.061953 0.031509 -0.035493
v -0.041310 0.031509 0.047935
v -0.061953 0.031509 0.036017
v 0.030941 0.031509 0.053894
v -0.000024 0.031509 0.071772
v 0.061905 0.031509 0.012180
v 0.061905 0.031509 0.036017
v 0.030941 0.031509 -0.053371
v 0.061905 0.031509 -0.035493
v -0.045216 0.144713 -0.025830
v -0.030093 0.144713 -0.034561
v -0.022751 0.107353 0.065870
v -0.000024 0.144713 0.078991
v -0.022751 0.144713 0.065870
v 0.068158 0.107353 -0.012860
v 0.068158 0.144713 -0.039103
v 0.068158 0.144713 -0.012860
v -0.068206 0.144713 0.039627
v -0.068206 0.144713 -0.011744
v -0.000024 0.144713 -0.078468
v 0.034067 0.144713 -0.058785
v 0.068158 0.144713 0.039627
v 0.034067 0.144713 0.059309
v -0.045216 0.144713 -0.007696
v -0.045216 0.144713 0.026353
v -0.045216 0.118948 0.026353
v -0.045216 0.118948 -0.007696
v -0.000024 0.144713 0.052445
v -0.015088 0.144713 0.043748
v 0.045168 0.144713 -0.025830
v 0.045168 0.144713 -0.008435
v -0.045216 0.167859 0.026353
v -0.068206 0.167859 0.039627
v 0.022572 0.144713 0.039399
v -0.000024 0.167859 0.052445
v 0.022572 0.167859 0.039399
v -0.000024 0.167859 -0.078468
v 0.034067 0.167859 -0.058785
v 0.045168 0.118948 -0.008435
v 0.045168 0.118948 -0.025830
v 0.022572 0.118948 -0.038876
v -0.000024 0.118948 -0.051921
v -0.030093 0.118948 -0.034561
v -0.045216 0.118948 -0.025830
v -0.030152 0.118948 0.035051
v -0.015088 0.118948 0.043748
v -0.000024 0.118948 0.052445
v 0.022572 0.118948 0.039399
v 0.045168 0.118948 0.008959
v 0.045168 0.118948 0.026353
v 0.045168 0.144713 0.026353
v 0.022572 0.144713 -0.038876
v -0.000024 0.144713 -0.051921
v -0.068206 0.167859 -0.011744
v -0.045216 0.167859 -0.007696
v 0.034067 0.167859 0.059309
v 0.068158 0.167859 0.039627
v 0.045168 0.167859 0.026353
v -0.000024 0.167859 -0.051921
v 0.022572 0.167859 -0.038876
v -0.068206 0.167859 -0.039103
v -0.045216 0.167859 -0.025830
v 0.068158 0.167859 -0.039103
v 0.045168 0.167859 -0.025830
v -0.000024 0.167859 0.078991
v 0.087123 -0.058104 0.050330
v 0.043480 -0.058104 0.075527
v 0.045727 -0.058078 0.079504
v 0.090133 -0.058074 0.052314
v 0.087123 -0.058104 -0.050459
v 0.087123 -0.058104 -0.016863
v 0.091477 -0.058078 -0.015417
v 0.090133 -0.058074 -0.051790
v -0.058240 -0.058104 -0.067322
v -0.000163 -0.058104 -0.100853
v -0.000024 -0.058074 -0.103843
v -0.059247 -0.058078 -0.071202
v 0.045787 -0.103777 0.079608
v -0.000024 -0.103773 0.104504
v -0.087449 -0.058104 -0.015435
v -0.087449 -0.058104 -0.050459
v -0.090181 -0.058074 -0.051790
v -0.091525 -0.058078 -0.014084
v -0.058353 -0.058104 0.067128
v -0.087449 -0.058104 0.050330
v -0.090181 -0.058074 0.052314
v -0.059353 -0.058078 0.071665
v 0.038268 -0.035701 -0.066062
v 0.035826 -0.013298 -0.061831
v 0.071675 -0.013298 -0.041134
v 0.076560 -0.035701 -0.043954
v 0.033383 0.009106 -0.057601
v 0.066790 0.009106 -0.038313
v 0.076560 -0.035701 0.015000
v 0.071675 -0.013298 0.014060
v 0.071675 -0.013298 0.041657
v 0.076560 -0.035701 0.044478
v 0.035826 -0.013298 0.062355
v 0.033383 0.009106 0.058125
v -0.000024 0.009106 0.077412
v -0.000024 -0.013298 0.083053
v -0.051080 -0.035701 0.059216
v -0.047823 -0.013298 0.055456
v -0.071723 -0.013298 0.041657
v -0.076608 -0.035701 0.044478
v -0.044567 0.009106 0.051695
v -0.066838 0.009106 0.038837
v -0.076608 -0.035701 -0.013224
v -0.071723 -0.013298 -0.012364
v -0.071723 -0.013298 -0.041134
v -0.076608 -0.035701 -0.043954
v -0.066838 0.009106 -0.011503
v -0.066838 0.009106 -0.038313
v -0.047730 -0.013298 -0.054986
v -0.044480 0.009106 -0.051222
v -0.000024 0.009106 -0.076889
v -0.000024 -0.013298 -0.082529
v 0.066790 0.009106 0.038837
v 0.038268 -0.035701 0.066586
v -0.020667 0.031509 0.059853
v -0.022295 0.009106 0.064554
v -0.023924 -0.013298 0.069254
v -0.025552 -0.035701 0.073955
v -0.000163 -0.058104 0.100724
v -0.000024 -0.058074 0.104366
v 0.091597 -0.103777 0.015964
v 0.090253 -0.103773 0.052383
v -0.030152 0.144713 0.035051
v -0.045478 0.144713 0.052748
v -0.019039 0.053912 0.055153
v 0.057020 0.053912 -0.010716
v 0.043464 0.056738 -0.010716
v 0.043464 0.056738 0.011240
v 0.066790 0.009106 -0.012597
v 0.061905 0.031509 -0.011656
v 0.066790 0.009106 0.013120
v 0.071675 -0.013298 -0.013537
v 0.076560 -0.035701 -0.014477
v -0.090301 -0.103773 -0.051860
v -0.059327 -0.103777 -0.071294
v 0.087123 -0.058104 0.016734
v 0.091477 -0.058078 0.015941
v 0.045168 0.144713 0.008959
v 0.068158 0.144713 0.013383
v 0.054601 0.110179 0.013383
v -0.000024 -0.103773 -0.103981
v -0.050981 -0.035701 -0.058750
v 0.043480 -0.058104 -0.075656
v 0.045727 -0.058078 -0.078981
v 0.042753 -0.057214 -0.073829
v 0.040310 -0.034810 -0.069599
v 0.078602 -0.034810 -0.047491
v 0.083487 -0.057214 -0.050311
v 0.035425 0.009996 -0.061138
v 0.032983 0.032400 -0.056908
v 0.063947 0.032400 -0.039030
v 0.068832 0.009996 -0.041850
v 0.085529 -0.057214 0.015941
v 0.080644 -0.034810 0.015000
v 0.080644 -0.034810 0.044478
v 0.085529 -0.057214 0.047298
v 0.075759 -0.012407 0.014060
v 0.070874 0.009996 0.013120
v 0.070874 0.009996 0.038837
v 0.075759 -0.012407 0.041657
v 0.065990 0.032400 0.012180
v 0.065990 0.032400 0.036017
v 0.042753 -0.057214 0.074353
v 0.040310 -0.034810 0.070123
v 0.002018 -0.034810 0.092230
v 0.002018 -0.057214 0.097871
v -0.000024 -0.035701 0.088693
v 0.037868 -0.012407 0.065892
v 0.002018 -0.012407 0.086590
v -0.056379 -0.057214 0.066514
v -0.053122 -0.034810 0.062753
v -0.078650 -0.034810 0.048015
v -0.083535 -0.057214 0.050835
v -0.049865 -0.012407 0.058993
v -0.046609 0.009996 0.055232
v -0.068880 0.009996 0.042374
v -0.073765 -0.012407 0.045194
v -0.085577 -0.057214 -0.014084
v -0.080692 -0.034810 -0.013224
v -0.080692 -0.034810 -0.043954
v -0.085577 -0.057214 -0.046774
v -0.075807 -0.012407 -0.012364
v -0.070922 0.009996 -0.011503
v -0.070922 0.009996 -0.038313
v -0.075807 -0.012407 -0.041134
v -0.056273 -0.057214 -0.066051
v -0.053023 -0.034810 -0.062287
v -0.002066 -0.034810 -0.091707
v -0.002066 -0.057214 -0.097347
v -0.000024 -0.035701 -0.088170
v -0.049772 -0.012407 -0.058523
v -0.002066 -0.012407 -0.086066
v -0.046522 0.009996 -0.054759
v -0.043272 0.032400 -0.050995
v -0.002066 0.032400 -0.074785
v -0.002066 0.009996 -0.080426
v 0.068832 0.009996 0.042374
v 0.063947 0.032400 0.039554
v 0.032983 0.032400 0.057431
v 0.035425 0.009996 0.061662
v 0.083487 -0.057214 0.050835
v 0.078602 -0.034810 0.048015
v -0.002066 -0.034810 0.092230
v -0.002066 -0.012407 0.086590
v -0.025966 -0.012407 0.072791
v -0.027594 -0.034810 0.077492
v -0.002066 -0.057214 0.097871
v -0.029222 -0.057214 0.082192
v -0.029258 -0.058104 0.083926
v 0.070874 0.009996 -0.038313
v 0.065990 0.032400 -0.035493
v 0.065990 0.032400 -0.011656
v 0.070874 0.009996 -0.012597
v 0.080644 -0.034810 -0.014477
v 0.075759 -0.012407 -0.013537
v 0.085529 -0.057214 -0.046774
v 0.080644 -0.034810 -0.043954
v 0.085529 -0.057214 -0.015417
v 0.002018 -0.034810 -0.091707
v 0.002018 -0.012407 -0.086066
v 0.037868 -0.012407 -0.065368
v 0.002018 -0.057214 -0.097347
v -0.083535 -0.057214 -0.050311
v -0.078650 -0.034810 -0.047491
v -0.085577 -0.057214 0.047298
v -0.080692 -0.034810 0.044478
v -0.012261 0.056738 0.043413
v -0.015973 0.110178 0.054129
v -0.038700 0.110178 0.041008
v -0.031275 0.056738 0.032434
v 0.054601 0.110179 -0.012860
v 0.045787 -0.103777 -0.079084
v 0.090253 -0.103773 -0.051860
v -0.059432 -0.103777 0.071757
v -0.090301 -0.103773 0.052383
v -0.091645 -0.103777 -0.014105
v -0.032196 -0.058078 0.087344
v -0.032236 -0.103777 0.087459
v 0.091597 -0.103777 -0.015440
s off
f 1 2 3
f 3 4 1
f 5 6 7
f 7 8 5
f 9 10 11
f 11 12 9
f 13 14 15
f 15 16 13
f 17 18 19
f 19 20 17
f 21 22 18
f 18 23 21
f 24 17 25
f 25 26 24
f 27 28 29
f 29 30 31
f 32 33 34
f 29 31 32
f 35 27 29
f 36 37 38
f 38 35 29
f 29 32 34
f 34 39 40
f 40 36 38
f 38 29 34
f 34 40 38
f 41 24 26
f 26 42 41
f 43 21 23
f 23 44 43
f 45 13 16
f 16 46 45
f 47 9 12
f 12 48 47
f 49 5 8
f 8 50 49
f 51 1 4
f 4 52 51
f 20 19 53
f 53 54 20
f 55 11 56
f 56 57 55
f 58 3 59
f 59 60 58
f 22 15 61
f 61 62 22
f 2 25 63
f 63 64 2
f 10 7 65
f 65 66 10
f 67 68 69
f 69 70 67
f 57 56 71
f 71 72 57
f 60 59 73
f 73 74 60
f 61 68 75
f 75 76 61
f 77 71 78
f 78 79 77
f 64 63 80
f 80 81 64
f 82 83 84
f 84 85 86
f 86 87 70
f 70 69 88
f 89 90 91
f 70 88 89
f 84 86 70
f 92 82 84
f 91 93 92
f 70 89 91
f 92 84 70
f 70 91 92
f 77 94 93
f 93 91 77
f 95 96 85
f 85 84 95
f 54 53 87
f 87 86 54
f 72 71 90
f 90 89 72
f 74 73 83
f 83 82 74
f 97 76 75
f 75 98 97
f 99 100 101
f 101 79 99
f 81 80 102
f 102 103 81
f 62 61 76
f 76 97 62
f 53 19 104
f 104 105 53
f 73 59 106
f 106 107 73
f 95 73 107
f 107 103 95
f 66 65 100
f 100 99 66
f 63 96 102
f 102 80 63
f 67 53 105
f 105 98 67
f 65 94 101
f 101 100 65
f 71 56 108
f 108 78 71
f 109 110 111
f 111 112 109
f 113 114 115
f 115 116 113
f 117 118 119
f 119 120 117
f 39 34 121
f 121 122 39
f 123 124 125
f 125 126 123
f 127 128 129
f 129 130 127
f 131 132 133
f 133 134 131
f 132 135 136
f 136 133 132
f 137 138 139
f 139 140 137
f 141 142 143
f 143 144 141
f 142 47 48
f 48 143 142
f 145 146 147
f 147 148 145
f 149 45 46
f 46 150 149
f 151 152 153
f 153 154 151
f 155 43 44
f 44 156 155
f 157 158 159
f 159 160 157
f 139 161 142
f 142 141 139
f 140 139 141
f 141 162 140
f 128 123 126
f 126 129 128
f 56 66 99
f 99 108 56
f 108 99 79
f 79 78 108
f 71 77 91
f 91 90 71
f 94 77 79
f 79 101 94
f 11 10 66
f 66 56 11
f 50 8 9
f 9 47 50
f 8 7 10
f 10 9 8
f 143 48 163
f 163 164 143
f 164 163 45
f 45 149 164
f 144 143 164
f 164 165 144
f 165 164 149
f 149 146 165
f 166 165 146
f 146 145 166
f 110 167 168
f 168 111 110
f 33 32 169
f 169 170 33
f 68 171 88
f 88 69 68
f 171 72 89
f 89 88 171
f 61 172 171
f 171 68 61
f 172 57 72
f 72 171 172
f 15 14 172
f 172 61 15
f 14 55 57
f 57 172 14
f 48 12 173
f 173 163 48
f 163 173 13
f 13 45 163
f 12 11 55
f 55 173 12
f 5 174 175
f 175 176 5
f 177 178 49
f 49 179 177
f 133 136 177
f 177 180 133
f 180 177 179
f 179 138 180
f 134 133 180
f 180 181 134
f 27 35 182
f 182 183 27
f 184 109 112
f 112 185 184
f 94 186 92
f 92 93 94
f 186 74 82
f 82 92 186
f 65 187 186
f 186 94 65
f 187 60 74
f 74 186 187
f 7 6 187
f 187 65 7
f 6 58 60
f 60 187 6
f 52 4 174
f 174 178 52
f 178 174 5
f 5 49 178
f 4 3 58
f 58 174 4
f 6 5 176
f 176 188 6
f 159 42 51
f 51 135 159
f 160 159 135
f 135 132 160
f 28 27 183
f 183 189 28
f 96 95 103
f 103 102 96
f 106 81 103
f 103 107 106
f 73 95 84
f 84 83 73
f 59 64 81
f 81 106 59
f 3 2 64
f 64 59 3
f 42 26 1
f 1 51 42
f 26 25 2
f 2 1 26
f 156 44 41
f 41 158 156
f 153 156 158
f 158 157 153
f 154 153 157
f 157 190 154
f 118 191 192
f 192 119 118
f 96 54 86
f 86 85 96
f 63 20 54
f 54 96 63
f 44 23 24
f 24 41 44
f 23 18 17
f 17 24 23
f 25 17 20
f 20 63 25
f 150 46 43
f 43 155 150
f 147 150 155
f 155 152 147
f 148 147 152
f 152 151 148
f 191 113 116
f 116 192 191
f 68 67 98
f 98 75 68
f 19 62 97
f 97 104 19
f 104 97 98
f 98 105 104
f 53 67 70
f 70 87 53
f 18 22 62
f 62 19 18
f 46 16 21
f 21 43 46
f 16 15 22
f 22 21 16
f 193 194 195
f 195 196 193
f 134 195 194
f 194 131 134
f 113 196 195
f 195 134 113
f 191 193 196
f 196 113 191
f 197 198 199
f 199 200 197
f 51 198 197
f 197 135 51
f 52 199 198
f 198 51 52
f 136 200 199
f 199 52 136
f 135 197 200
f 200 136 135
f 201 202 203
f 203 204 201
f 140 203 202
f 202 137 140
f 109 204 203
f 203 140 109
f 184 201 204
f 204 109 184
f 205 206 207
f 207 208 205
f 179 206 205
f 205 138 179
f 139 208 207
f 207 161 139
f 138 205 208
f 208 139 138
f 206 209 210
f 210 207 206
f 49 209 206
f 206 179 49
f 50 210 209
f 209 49 50
f 161 207 210
f 210 50 161
f 211 212 213
f 213 214 211
f 167 214 213
f 213 215 167
f 110 211 214
f 214 167 110
f 212 216 217
f 217 213 212
f 141 216 212
f 212 162 141
f 144 217 216
f 216 141 144
f 215 213 217
f 217 144 215
f 218 219 220
f 220 221 218
f 148 220 219
f 219 145 148
f 128 221 220
f 220 148 128
f 127 218 221
f 221 128 127
f 222 223 224
f 224 225 222
f 149 223 222
f 222 146 149
f 150 224 223
f 223 149 150
f 147 225 224
f 224 150 147
f 146 222 225
f 225 147 146
f 226 227 228
f 228 229 226
f 154 228 227
f 227 151 154
f 124 229 228
f 228 154 124
f 123 226 229
f 229 124 123
f 230 231 232
f 232 233 230
f 155 231 230
f 230 152 155
f 156 232 231
f 231 155 156
f 153 233 232
f 232 156 153
f 152 230 233
f 233 153 152
f 234 235 236
f 236 237 234
f 118 237 236
f 236 238 118
f 117 234 237
f 237 118 117
f 235 239 240
f 240 236 235
f 157 239 235
f 235 190 157
f 160 240 239
f 239 157 160
f 238 236 240
f 240 160 238
f 241 242 243
f 243 244 241
f 41 242 241
f 241 158 41
f 42 243 242
f 242 41 42
f 159 244 243
f 243 42 159
f 158 241 244
f 244 159 158
f 245 246 247
f 247 248 245
f 50 246 245
f 245 161 50
f 47 247 246
f 246 50 47
f 142 248 247
f 247 47 142
f 161 245 248
f 248 142 161
f 249 250 212
f 212 211 249
f 140 250 249
f 249 109 140
f 162 212 250
f 250 140 162
f 109 249 211
f 211 110 109
f 251 252 253
f 253 254 251
f 144 252 251
f 251 215 144
f 165 253 252
f 252 144 165
f 166 254 253
f 253 165 166
f 255 251 254
f 254 256 255
f 215 251 255
f 255 167 215
f 167 255 256
f 256 257 167
f 256 254 219
f 219 218 256
f 145 219 254
f 254 166 145
f 257 256 218
f 218 127 257
f 258 259 260
f 260 261 258
f 52 259 258
f 258 136 52
f 178 260 259
f 259 52 178
f 177 261 260
f 260 178 177
f 136 258 261
f 261 177 136
f 262 263 205
f 205 202 262
f 180 263 262
f 262 181 180
f 138 205 263
f 263 180 138
f 137 202 205
f 205 138 137
f 264 265 262
f 262 266 264
f 134 265 264
f 264 113 134
f 181 262 265
f 265 134 181
f 113 264 266
f 266 114 113
f 266 262 202
f 202 201 266
f 114 266 201
f 201 184 114
f 267 268 269
f 269 194 267
f 160 268 267
f 267 238 160
f 132 269 268
f 268 160 132
f 131 194 269
f 269 132 131
f 270 267 194
f 194 193 270
f 238 267 270
f 270 118 238
f 118 270 193
f 193 191 118
f 271 272 235
f 235 234 271
f 154 272 271
f 271 124 154
f 190 235 272
f 272 154 190
f 124 271 234
f 234 117 124
f 273 274 227
f 227 226 273
f 148 274 273
f 273 128 148
f 151 227 274
f 274 148 151
f 128 273 226
f 226 123 128
f 275 276 277
f 277 278 275
f 175 279 188
f 188 176 175
f 58 6 188
f 188 279 58
f 13 173 275
f 275 278 13
f 14 13 278
f 278 277 14
f 55 14 277
f 277 276 55
f 174 58 279
f 279 175 174
f 173 55 276
f 276 275 173
f 280 192 116
f 116 281 280
f 169 185 112
f 112 170 169
f 121 111 168
f 168 122 121
f 282 130 129
f 129 283 282
f 284 126 125
f 125 182 284
f 183 120 119
f 119 189 183
f 170 112 111
f 111 121 170
f 122 168 285
f 285 286 122
f 286 285 130
f 130 282 286
f 281 116 115
f 115 287 281
f 287 115 185
f 185 169 287
f 189 119 192
f 192 280 189
f 182 125 120
f 120 183 182
f 283 129 126
f 126 284 283
f 29 28 189
f 189 280 29
f 114 184 185
f 185 115 114
f 167 257 285
f 285 168 167
f 31 30 281
f 281 287 31
f 257 127 130
f 130 285 257
f 124 117 120
f 120 125 124
f 32 31 287
f 287 169 32
f 37 36 282
f 282 283 37
f 40 39 122
f 122 286 40
f 38 37 283
f 283 284 38
f 36 40 286
f 286 282 36
f 35 38 284
f 284 182 35
f 34 33 170
f 170 121 34
f 30 29 280
f 280 281 30
