# Blender v2.79 (sub 0) OBJ File: 'tiles.blend'
# www.blender.org
o Town
v -0.088106 0.185548 0.017363
v -0.185285 0.089978 -0.016122
v -0.190895 0.088241 -0.014265
v -0.115002 0.185548 0.049417
v -0.128991 0.175910 0.058796
v -0.200278 0.083793 -0.009510
v -0.206417 0.073774 -0.018882
v -0.216237 0.069384 -0.014412
v -0.115002 0.091749 0.049417
v -0.076048 0.132722 0.082104
v -0.086446 0.171628 0.094496
v -0.128991 0.126694 0.058796
v -0.086446 0.220843 0.094496
v -0.139345 0.190360 0.050108
v -0.125356 0.199998 0.040729
v -0.076048 0.226521 0.082104
v -0.091798 0.240971 0.068888
v -0.102544 0.235294 0.080988
v -0.077339 -0.049799 0.081020
v -0.074944 -0.053470 0.070463
v -0.067466 -0.051303 0.071877
v -0.064902 0.240971 0.036834
v -0.098459 0.199998 0.008675
v -0.049151 0.226521 0.050050
v -0.027406 0.226521 0.024135
v -0.043156 0.240971 0.010918
v -0.119071 0.076874 -0.117865
v -0.092458 0.076874 -0.149581
v -0.109057 0.056540 -0.163508
v -0.138268 0.056540 -0.128695
v -0.109057 0.007325 -0.163508
v -0.115234 0.007325 -0.156146
v -0.138268 0.031835 -0.128695
v -0.149494 0.106838 -0.034148
v -0.079323 0.185900 0.024732
v -0.048535 0.145701 -0.092909
v -0.050118 0.139442 -0.091023
v -0.036592 0.021392 0.115211
v -0.037093 -0.067905 0.114791
v 0.052056 -0.112010 0.189596
v 0.052056 -0.017100 0.189596
v -0.003597 0.050851 0.142897
v -0.037093 0.185548 0.114791
v 0.031032 0.108114 0.156252
v -0.010196 0.185548 0.082737
v -0.043900 0.175910 0.130196
v 0.026561 0.103933 0.168203
v -0.037093 0.091749 0.114791
v -0.043900 0.126694 0.130196
v 0.083361 0.007325 0.177078
v 0.083361 0.056540 0.177078
v 0.053865 0.056540 0.212230
v 0.053865 0.007325 0.212230
v 0.078953 -0.017100 0.157542
v -0.026739 0.199998 0.123478
v -0.033546 0.190360 0.138883
v 0.006111 0.065632 0.172160
v 0.019591 0.071555 0.183471
v 0.014401 0.073774 0.179116
v -0.001792 0.057869 0.151722
v 0.000638 0.054632 0.153548
v -0.070347 0.235294 0.108004
v -0.060297 0.240971 0.095320
v -0.077339 -0.015675 0.081020
v -0.051163 0.008381 0.102984
v -0.062315 -0.001576 0.093626
v -0.055165 -0.054009 0.070112
v -0.051309 -0.054858 0.069558
v -0.020694 -0.067905 0.095247
v -0.033401 0.240971 0.063266
v 0.000157 0.199998 0.091424
v -0.011655 0.240971 0.037351
v 0.132746 -0.017100 0.093434
v 0.159358 -0.017100 0.061718
v 0.165366 -0.005078 0.066760
v 0.161635 -0.001576 0.074762
v 0.151666 0.007325 0.095676
v 0.142353 0.007325 0.106775
v 0.112857 0.007325 0.141927
v 0.105849 -0.017100 0.125488
v 0.047665 0.076874 0.185911
v 0.074561 0.076874 0.153857
v 0.103560 0.055464 0.157313
v 0.084918 0.073774 0.150960
v 0.086074 0.075010 0.143228
v 0.087818 0.076874 0.138058
v 0.101458 0.076874 0.121803
v 0.112857 0.056540 0.141927
v 0.142353 0.056540 0.106775
v 0.128354 0.076874 0.089749
v 0.171565 0.056540 0.071961
v 0.154967 0.076874 0.058034
v 0.171565 0.007325 0.071961
v 0.142353 0.017362 0.106775
v 0.145534 0.012800 0.102984
v 0.132875 0.026672 0.118071
v 0.134852 0.023451 0.120749
v 0.111766 0.042950 0.143228
v 0.101844 0.051808 0.155051
v 0.078953 -0.112010 0.157542
v 0.105849 -0.112010 0.125488
v 0.132746 -0.112010 0.093434
v 0.159358 -0.112010 0.061718
v -0.018979 0.185900 0.075367
v 0.051648 0.103581 0.134630
v 0.063213 0.139442 0.058365
v 0.064812 0.145701 0.056459
v 0.049660 0.102183 0.139435
v 0.035403 0.112203 0.138967
v 0.033893 0.110791 0.143228
v 0.089946 0.139442 0.026505
v 0.091529 0.145701 0.024619
v 0.099601 -0.067905 -0.206338
v 0.099601 -0.174395 -0.206338
v 0.106229 -0.174395 -0.215519
v 0.106229 -0.067905 -0.215519
v 0.072705 0.185548 -0.174284
v 0.099601 0.185548 -0.206338
v 0.014844 0.076874 -0.277458
v 0.106408 0.175910 -0.221743
v 0.008643 0.056540 -0.303777
v 0.099601 0.091749 -0.206338
v 0.106408 0.126694 -0.221743
v 0.148954 0.171628 -0.186043
v 0.138556 0.132722 -0.173651
v -0.020853 0.007325 -0.268625
v -0.020853 0.056540 -0.268625
v 0.008643 0.007325 -0.303777
v 0.148954 0.220843 -0.186043
v -0.016444 -0.017100 -0.249089
v 0.010452 -0.017100 -0.281143
v 0.089248 0.199998 -0.215025
v 0.096055 0.190360 -0.230430
v 0.132856 0.235294 -0.199551
v 0.122806 0.240971 -0.186867
v 0.138556 0.226521 -0.173651
v 0.076629 0.081599 -0.166689
v 0.076629 -0.053290 -0.166689
v 0.069135 -0.060565 -0.229311
v 0.030480 -0.107763 -0.261747
v 0.122159 -0.094092 -0.154110
v 0.122159 -0.174183 -0.154110
v 0.103202 -0.174395 -0.170040
v 0.097286 -0.174395 -0.175011
v 0.097271 -0.104699 -0.174993
v 0.138556 -0.051303 -0.173651
v 0.095909 0.240971 -0.154813
v 0.062351 0.199998 -0.182971
v 0.111660 0.226521 -0.141597
v 0.074164 0.240971 -0.128898
v 0.089914 0.226521 -0.115682
v -0.070237 -0.017100 -0.184981
v -0.079845 0.007325 -0.198322
v -0.050349 0.007325 -0.233474
v -0.043341 -0.017100 -0.217035
v -0.012053 0.076874 -0.245404
v -0.050349 0.056540 -0.233474
v -0.038949 0.076874 -0.213350
v -0.079845 0.056540 -0.198322
v -0.065846 0.076874 -0.181296
v 0.010452 -0.112010 -0.281143
v -0.016444 -0.112010 -0.249089
v -0.043341 -0.112010 -0.217035
v -0.070237 -0.112010 -0.184981
v -0.082732 -0.112010 -0.170090
v -0.082732 -0.066735 -0.170090
v -0.073461 -0.049799 -0.181139
v -0.073461 -0.017100 -0.181139
v 0.081487 0.185900 -0.166914
v 0.041828 0.165020 -0.156031
v 0.034727 0.164735 -0.161989
v -0.000704 0.139442 -0.149912
v -0.002303 0.145701 -0.148006
v -0.027438 0.139442 -0.118052
v -0.029020 0.145701 -0.116166
v 0.150614 0.185548 -0.108910
v 0.262269 0.076874 -0.069844
v 0.177511 0.185548 -0.140964
v 0.289265 0.056540 -0.068308
v 0.191500 0.175910 -0.150343
v 0.177511 0.091749 -0.140964
v 0.191500 0.126694 -0.150343
v 0.259769 0.007325 -0.033156
v 0.289265 0.007325 -0.068308
v 0.259769 0.056540 -0.033156
v 0.239763 -0.017100 -0.034105
v 0.266660 -0.017100 -0.066159
v 0.201853 0.190360 -0.141655
v 0.187864 0.199998 -0.132276
v 0.154307 0.240971 -0.160435
v 0.165052 0.235294 -0.172535
v 0.177511 -0.067905 -0.140964
v 0.109541 -0.039263 -0.139072
v 0.142453 -0.053290 -0.111456
v 0.106229 0.091749 -0.215519
v 0.141139 -0.174395 -0.138207
v 0.147047 -0.104699 -0.133226
v 0.147062 -0.174395 -0.133244
v 0.177511 -0.174395 -0.140964
v 0.127410 0.240971 -0.128381
v 0.160968 0.199998 -0.100222
v 0.105665 0.240971 -0.102465
v 0.176658 -0.017100 0.041101
v 0.169316 -0.008785 0.058291
v 0.185970 -0.017100 0.030003
v 0.212867 -0.017100 -0.002051
v 0.230273 0.007325 0.001996
v 0.200777 0.007325 0.037148
v 0.235372 0.076874 -0.037790
v 0.208476 0.076874 -0.005736
v 0.230273 0.056540 0.001996
v 0.181579 0.076874 0.026318
v 0.200777 0.056540 0.037148
v 0.266660 -0.112010 -0.066159
v 0.239763 -0.112010 -0.034105
v 0.212867 -0.112010 -0.002051
v 0.185970 -0.112010 0.030003
v 0.165609 -0.112010 0.054269
v 0.176658 -0.049799 0.041101
v 0.165609 -0.066735 0.054269
v 0.141832 0.185900 -0.116279
v 0.145101 0.164735 -0.069374
v 0.138000 0.165020 -0.075332
v 0.137760 0.145701 -0.030478
v 0.139360 0.139442 -0.032384
v 0.111044 0.145701 0.001361
v 0.112626 0.139442 -0.000524
v 0.109541 0.116217 -0.139072
v 0.142453 0.081599 -0.111456
v 0.069135 -0.129792 -0.229311
v 0.030480 -0.148915 -0.261747
v 0.197538 -0.129792 -0.121568
v 0.197538 -0.060565 -0.121568
v 0.236193 -0.107763 -0.089133
v 0.236193 -0.148915 -0.089133
v 0.266660 -0.174395 -0.066159
v 0.236193 -0.174395 -0.089133
v 0.197538 -0.174395 -0.121568
v 0.205644 -0.174395 -0.129475
v 0.205644 -0.129792 -0.129475
v 0.075763 -0.174395 -0.238493
v 0.075763 -0.129792 -0.238493
v 0.075763 -0.060565 -0.238493
v 0.185617 -0.067905 -0.148871
v 0.185617 0.091749 -0.148871
v 0.205644 -0.060565 -0.129475
v -0.033998 0.325550 -0.011258
v -0.095037 0.266141 -0.032615
v -0.048701 0.325550 0.006265
v -0.109795 0.255024 -0.033454
v -0.056349 0.320282 0.011393
v -0.048701 0.274272 0.006265
v -0.027406 0.296672 0.024135
v -0.033090 0.317941 0.030909
v -0.056349 0.293376 0.011393
v -0.093670 0.228119 -0.052671
v -0.109795 0.228119 -0.033454
v -0.093670 0.255024 -0.052671
v -0.033090 0.344846 0.030909
v -0.082734 0.214767 -0.052152
v -0.097438 0.214767 -0.034629
v -0.062009 0.328181 0.006643
v -0.054362 0.333450 0.001516
v -0.027406 0.347950 0.024135
v -0.036016 0.355850 0.016910
v -0.041891 0.352746 0.023525
v -0.021312 0.355850 -0.000614
v -0.039658 0.333450 -0.016007
v 0.009959 0.325550 -0.063643
v -0.004590 0.325550 -0.046304
v -0.010250 0.333450 -0.051054
v 0.004298 0.333450 -0.068392
v -0.019294 0.325550 -0.028781
v -0.024954 0.333450 -0.033531
v -0.012702 0.347950 0.006611
v 0.002002 0.347950 -0.010912
v -0.006609 0.355850 -0.018137
v 0.016706 0.347950 -0.028435
v 0.008095 0.355850 -0.035660
v 0.031254 0.347950 -0.045773
v 0.022644 0.355850 -0.052999
v -0.038778 0.214767 -0.104537
v -0.053326 0.214767 -0.087199
v -0.061421 0.228119 -0.091105
v -0.045451 0.228119 -0.110137
v -0.068030 0.214767 -0.069676
v -0.077546 0.228119 -0.071888
v -0.080333 0.266141 -0.050138
v -0.065629 0.266141 -0.067661
v -0.077546 0.255024 -0.071888
v -0.050926 0.266141 -0.085185
v -0.061421 0.255024 -0.091105
v -0.036377 0.266141 -0.102523
v -0.045451 0.255024 -0.110137
v -0.097438 0.162881 -0.034629
v -0.082734 0.162881 -0.052152
v -0.068030 0.162881 -0.069676
v -0.053326 0.162881 -0.087199
v -0.038778 0.162881 -0.104537
v -0.029196 0.325743 -0.007229
v -0.014493 0.325743 -0.024753
v 0.000211 0.325743 -0.042276
v 0.014760 0.325743 -0.059614
v 0.008594 0.325550 0.024481
v -0.006110 0.325550 0.042004
v 0.040226 0.266141 0.080884
v -0.009831 0.320282 0.050426
v 0.043615 0.255024 0.095272
v -0.006110 0.274272 0.042004
v -0.009831 0.293376 0.050426
v 0.059740 0.228119 0.076056
v 0.059740 0.255024 0.076056
v 0.043615 0.228119 0.095272
v 0.057330 0.214767 0.065375
v 0.042626 0.214767 0.082898
v -0.000450 0.333450 0.046753
v -0.004171 0.328181 0.055175
v -0.024289 0.352746 0.038294
v -0.018795 0.355850 0.031360
v -0.004091 0.355850 0.013836
v 0.014254 0.333450 0.029230
v 0.052550 0.325550 -0.027904
v 0.058210 0.333450 -0.023155
v 0.043662 0.333450 -0.005817
v 0.038001 0.325550 -0.010566
v 0.028958 0.333450 0.011707
v 0.023298 0.325550 0.006957
v 0.010612 0.355850 -0.003687
v 0.025316 0.355850 -0.021210
v 0.039865 0.355850 -0.038548
v 0.101286 0.214767 0.012990
v 0.107960 0.228119 0.018590
v 0.091990 0.228119 0.037622
v 0.086738 0.214767 0.030328
v 0.075865 0.228119 0.056839
v 0.072034 0.214767 0.047852
v 0.054929 0.266141 0.063361
v 0.075865 0.255024 0.056839
v 0.069633 0.266141 0.045837
v 0.091990 0.255024 0.037622
v 0.084337 0.266141 0.028314
v 0.107960 0.255024 0.018590
v 0.098886 0.266141 0.010976
v 0.042626 0.162881 0.082898
v 0.057330 0.162881 0.065375
v 0.072034 0.162881 0.047852
v 0.086738 0.162881 0.030328
v 0.101286 0.162881 0.012990
v 0.003793 0.325743 0.020452
v 0.018497 0.325743 0.002929
v 0.033200 0.325743 -0.014595
v 0.047749 0.325743 -0.031933
v 0.053915 0.325550 -0.116028
v 0.068618 0.325550 -0.133551
v 0.022283 0.266141 -0.172431
v 0.072340 0.320282 -0.141973
v 0.018893 0.255024 -0.186819
v 0.068618 0.274272 -0.133551
v 0.072340 0.293376 -0.141973
v 0.095599 0.317941 -0.122456
v 0.089914 0.296672 -0.115682
v 0.002768 0.228119 -0.167602
v 0.002768 0.255024 -0.167602
v 0.018893 0.228119 -0.186819
v 0.095599 0.344846 -0.122456
v 0.005178 0.214767 -0.156922
v 0.019882 0.214767 -0.174445
v 0.062958 0.333450 -0.138300
v 0.066679 0.328181 -0.146722
v 0.086798 0.352746 -0.129841
v 0.081304 0.355850 -0.122907
v 0.089914 0.347950 -0.115682
v 0.066600 0.355850 -0.105383
v 0.048254 0.333450 -0.120777
v 0.018847 0.333450 -0.085730
v 0.024507 0.325550 -0.080981
v 0.033551 0.333450 -0.103254
v 0.039211 0.325550 -0.098504
v 0.075210 0.347950 -0.098158
v 0.051896 0.355850 -0.087860
v 0.060506 0.347950 -0.080635
v 0.037192 0.355850 -0.070337
v 0.045803 0.347950 -0.063112
v -0.029482 0.228119 -0.129169
v -0.024229 0.214767 -0.121875
v -0.013357 0.228119 -0.148386
v -0.009525 0.214767 -0.139399
v 0.007579 0.266141 -0.154908
v -0.013357 0.255024 -0.148386
v -0.007125 0.266141 -0.137384
v -0.029482 0.255024 -0.129169
v -0.021829 0.266141 -0.119861
v 0.019882 0.162881 -0.174445
v 0.005178 0.162881 -0.156922
v -0.009525 0.162881 -0.139399
v -0.024229 0.162881 -0.121875
v 0.058716 0.325743 -0.111999
v 0.044012 0.325743 -0.094476
v 0.029308 0.325743 -0.076952
v 0.096506 0.325550 -0.080289
v 0.157545 0.266141 -0.058932
v 0.111210 0.325550 -0.097812
v 0.172304 0.255024 -0.058093
v 0.118857 0.320282 -0.102940
v 0.111210 0.274272 -0.097812
v 0.118857 0.293376 -0.102940
v 0.156179 0.228119 -0.038876
v 0.172304 0.228119 -0.058093
v 0.156179 0.255024 -0.038876
v 0.145242 0.214767 -0.039395
v 0.159946 0.214767 -0.056918
v 0.124518 0.328181 -0.098190
v 0.116870 0.333450 -0.093063
v 0.098525 0.355850 -0.108457
v 0.104399 0.352746 -0.115071
v 0.083821 0.355850 -0.090933
v 0.102166 0.333450 -0.075540
v 0.067098 0.325550 -0.045242
v 0.072759 0.333450 -0.040493
v 0.081802 0.325550 -0.062766
v 0.087462 0.333450 -0.058016
v 0.069117 0.355850 -0.073410
v 0.054413 0.355850 -0.055887
v 0.115835 0.214767 -0.004348
v 0.123929 0.228119 -0.000442
v 0.130538 0.214767 -0.021871
v 0.140054 0.228119 -0.019659
v 0.142842 0.266141 -0.041409
v 0.128138 0.266141 -0.023886
v 0.140054 0.255024 -0.019659
v 0.113434 0.266141 -0.006362
v 0.123929 0.255024 -0.000442
v 0.159946 0.162881 -0.056918
v 0.145242 0.162881 -0.039395
v 0.130538 0.162881 -0.021871
v 0.115835 0.162881 -0.004348
v 0.091705 0.325743 -0.084318
v 0.077001 0.325743 -0.066794
v 0.062297 0.325743 -0.049271
v -0.048701 0.234201 0.006265
v -0.053326 0.145701 -0.087199
v -0.065390 0.145701 -0.072822
v -0.065390 0.139442 -0.072822
v -0.068030 0.139442 -0.069676
v 0.050959 0.185548 -0.148368
v 0.040606 0.199998 -0.157056
v 0.101286 0.139442 0.012990
v 0.068618 0.234201 -0.133551
v 0.041700 0.173675 -0.156138
v -0.012165 0.145701 -0.136253
v -0.012165 0.139442 -0.136253
v 0.145242 0.145701 -0.039395
v 0.154795 0.145701 -0.050779
v 0.154795 0.139442 -0.050779
v 0.159946 0.139442 -0.056918
v 0.014731 0.145701 -0.168307
v 0.014731 0.139442 -0.168307
v 0.072034 0.139442 0.047852
v 0.074674 0.139442 0.044706
v 0.074674 0.145701 0.044706
v 0.086738 0.145701 0.030328
v -0.066360 0.185548 -0.008552
v -0.075620 0.173675 -0.016322
v -0.082593 0.164735 -0.022173
v -0.137699 0.111100 -0.041454
v -0.141989 0.110209 -0.037752
v -0.076714 0.199998 -0.017240
v 0.019882 0.139442 -0.174445
v 0.005178 0.145701 -0.156922
v 0.111210 0.234201 -0.097812
v 0.020808 0.173675 0.064591
v 0.027781 0.164735 0.070442
v 0.020681 0.165020 0.064484
v 0.042626 0.139442 0.082898
v -0.009525 0.139442 -0.139399
v 0.139222 0.199998 -0.074307
v 0.127899 0.145701 -0.018725
v 0.115835 0.145701 -0.004348
v -0.024229 0.145701 -0.121875
v -0.006110 0.234201 0.042004
v 0.021903 0.199998 0.065509
v 0.011549 0.185548 0.056822
v -0.120555 0.109456 -0.064488
v -0.092286 0.145701 -0.040768
v -0.082734 0.145701 -0.052152
v -0.075252 0.145701 -0.061069
v -0.116496 0.105559 -0.075500
v -0.113626 0.112203 -0.068396
v -0.111008 0.108521 -0.072332
v -0.076851 0.139442 -0.059163
v -0.141989 0.076201 -0.091669
v -0.124977 0.083793 -0.098770
v 0.138128 0.173675 -0.075225
v 0.127899 0.139442 -0.018725
v 0.057330 0.145701 0.065375
v 0.047777 0.139442 0.076760
v 0.047777 0.145701 0.076760
v -0.097438 0.139442 -0.034629
v -0.075492 0.165020 -0.016215
v 0.128869 0.185548 -0.082995
v 0.094290 0.083793 0.118290
v 0.130538 0.139442 -0.021871
v -0.134705 0.111418 -0.039045
v -0.092286 0.139442 -0.040768
v -0.118867 0.108461 -0.063072
v -0.135539 0.102183 -0.054140
v -0.038778 0.139442 -0.104537
v -0.304253 -0.101961 -0.089399
v -0.304253 0.008738 -0.089399
v -0.304253 -0.066735 -0.170090
v -0.304253 -0.132541 -0.170090
v -0.263579 0.073774 -0.089399
v -0.304253 -0.001576 -0.166115
v -0.304253 0.073774 -0.089399
v -0.319977 -0.015675 -0.181139
v -0.319977 0.067092 -0.092649
v -0.304253 0.037147 -0.054140
v -0.319977 0.064123 -0.054140
v -0.319977 0.032967 -0.092649
v -0.275372 -0.049799 -0.181139
v -0.319977 -0.049799 -0.181139
v -0.275372 -0.015675 -0.181139
v -0.319977 0.098247 -0.054140
v -0.263579 -0.066735 -0.170090
v -0.319977 0.077111 -0.102021
v -0.304253 0.083793 -0.098770
v -0.304253 0.102183 -0.054140
v -0.304253 0.112203 -0.068396
v -0.319977 0.108266 -0.068711
v -0.304253 -0.090450 -0.054140
v -0.279454 -0.101961 -0.089399
v -0.279454 -0.090450 -0.054140
v -0.304253 -0.174395 -0.089399
v -0.279488 -0.174395 -0.089399
v -0.263579 0.112203 -0.068396
v -0.263579 0.083793 -0.098770
v -0.182233 0.073774 -0.089399
v -0.222906 0.073774 -0.089399
v -0.222906 0.083793 -0.098770
v -0.182233 0.083793 -0.098770
v -0.263579 0.102183 -0.054140
v -0.222906 0.102183 -0.054140
v -0.222906 0.112203 -0.068396
v -0.182233 0.102183 -0.054140
v -0.182233 0.112203 -0.068396
v -0.141989 0.102183 -0.054140
v -0.141989 0.112203 -0.068396
v -0.141989 0.083793 -0.098770
v -0.141989 -0.066735 -0.170090
v -0.182233 -0.066735 -0.170090
v -0.186164 -0.049799 -0.181139
v -0.141989 -0.049799 -0.181139
v -0.222906 -0.066735 -0.170090
v -0.230768 -0.049799 -0.181139
v -0.263579 -0.001576 -0.166115
v -0.222906 -0.001576 -0.166115
v -0.230768 -0.015675 -0.181139
v -0.182233 -0.001576 -0.166115
v -0.186164 -0.015675 -0.181139
v -0.141989 -0.001576 -0.166115
v -0.141989 -0.015675 -0.181139
v -0.263579 -0.132541 -0.170090
v -0.222906 -0.132541 -0.170090
v -0.182233 -0.132541 -0.170090
v -0.141989 -0.132541 -0.170090
v -0.263579 0.074019 -0.081450
v -0.222906 0.074019 -0.081450
v -0.182233 0.074019 -0.081450
v -0.153242 0.052705 -0.110850
v -0.154980 0.049617 -0.108779
v -0.304253 -0.101961 -0.018882
v -0.304253 -0.132541 0.061809
v -0.304253 -0.066735 0.061809
v -0.304253 0.008738 -0.018882
v -0.263579 0.073774 -0.018882
v -0.304253 0.073774 -0.018882
v -0.304253 -0.001576 0.057835
v -0.319977 0.067092 -0.015631
v -0.319977 -0.015675 0.072858
v -0.319977 0.032967 -0.015631
v -0.275372 -0.049799 0.072858
v -0.275372 -0.015675 0.072858
v -0.319977 -0.049799 0.072858
v -0.263579 -0.066735 0.061809
v -0.304253 0.083793 -0.009510
v -0.319977 0.077111 -0.006260
v -0.319977 0.108266 -0.039569
v -0.304253 0.112203 -0.039884
v -0.279454 -0.101961 -0.018882
v -0.279488 -0.174395 -0.018882
v -0.304253 -0.174395 -0.018882
v -0.263579 0.112203 -0.039884
v -0.263579 0.083793 -0.009510
v -0.222906 0.073774 -0.018882
v -0.222906 0.083793 -0.009510
v -0.222906 0.112203 -0.039884
v -0.182233 0.112203 -0.039884
v -0.141989 0.112203 -0.039884
v -0.182233 0.091272 -0.017506
v -0.141989 -0.066735 0.061809
v -0.141989 -0.049799 0.072858
v -0.186164 -0.049799 0.072858
v -0.182233 -0.066735 0.061809
v -0.230768 -0.049799 0.072858
v -0.222906 -0.066735 0.061809
v -0.263579 -0.001576 0.057835
v -0.230768 -0.015675 0.072858
v -0.222906 -0.001576 0.057835
v -0.186164 -0.015675 0.072858
v -0.182233 -0.001576 0.057835
v -0.141989 -0.015675 0.072858
v -0.141989 -0.001576 0.057835
v -0.263579 -0.132541 0.061809
v -0.222906 -0.132541 0.061809
v -0.182233 -0.132541 0.061809
v -0.141989 -0.132541 0.061809
v -0.263579 0.074019 -0.026831
v -0.222906 0.074019 -0.026831
v -0.196254 0.047959 0.002355
v -0.194343 0.051340 0.003959
v -0.158556 0.038570 0.012871
v -0.159177 0.041592 0.013884
v -0.097815 -0.049799 -0.181139
v -0.101746 -0.066735 -0.170090
v -0.101746 -0.000205 -0.164579
v -0.097815 -0.015675 -0.181139
v -0.101746 -0.132541 -0.170090
v -0.101746 -0.066735 0.061809
v -0.097815 -0.049799 0.072858
v -0.066290 -0.066735 0.061809
v -0.094275 -0.059072 0.066809
v -0.087066 -0.049799 0.072858
v -0.060543 -0.066735 0.061809
v -0.097815 -0.015675 0.072858
v -0.087066 -0.015675 0.072858
v -0.060543 -0.132541 0.061809
v -0.066290 -0.132541 0.062311
v -0.101746 -0.132541 0.061809
v -0.099289 -0.001576 -0.166115
v -0.106666 0.002542 -0.161503
v -0.104970 -0.001576 0.057835
v -0.115002 0.005940 0.049417
v -0.141989 0.026159 0.026772
v -0.182233 0.043901 0.006901
v -0.194532 0.046670 0.003800
v -0.182233 0.047154 0.008222
v -0.141989 0.035794 -0.124261
v -0.156519 0.056540 -0.106945
v -0.082732 -0.132541 -0.170090
v -0.147269 0.073774 -0.089399
v -0.100839 -0.004830 0.061302
v 0.014401 -0.101961 0.305491
v 0.014401 0.008738 0.305491
v -0.066290 -0.066735 0.305491
v -0.066290 -0.132541 0.305491
v 0.014401 0.073774 0.264818
v -0.062315 -0.001576 0.305491
v 0.014401 0.073774 0.305491
v -0.077339 -0.015675 0.321215
v 0.011151 0.067092 0.321215
v 0.049660 0.037147 0.305491
v 0.049660 0.064123 0.321215
v 0.011151 0.032967 0.321215
v -0.077339 -0.049799 0.276611
v -0.077339 -0.049799 0.321215
v -0.077339 -0.015675 0.276611
v 0.049660 0.098247 0.321215
v -0.066290 -0.066735 0.264818
v 0.001779 0.077111 0.321215
v 0.005030 0.083793 0.305491
v 0.049660 0.102183 0.305491
v 0.035403 0.112203 0.305491
v 0.035089 0.108266 0.321215
v 0.049660 -0.090450 0.305491
v 0.014401 -0.101961 0.280692
v 0.049660 -0.090450 0.280692
v 0.014401 -0.174395 0.305491
v 0.014401 -0.174395 0.280726
v 0.035403 0.112203 0.264818
v 0.005030 0.083793 0.264818
v 0.014401 0.073774 0.183471
v 0.014401 0.073774 0.224144
v 0.005030 0.083793 0.224144
v 0.005030 0.083793 0.183471
v 0.049660 0.102183 0.264818
v 0.049660 0.102183 0.224144
v 0.035403 0.112203 0.224144
v 0.049660 0.102183 0.183471
v 0.035403 0.112203 0.183471
v 0.049660 0.102183 0.143228
v 0.019591 0.097413 0.183471
v -0.066290 -0.066735 0.143228
v -0.066290 -0.066735 0.183471
v -0.077339 -0.049799 0.187402
v -0.077339 -0.049799 0.143228
v -0.066290 -0.066735 0.224144
v -0.077339 -0.049799 0.232006
v -0.062315 -0.001576 0.264818
v -0.062315 -0.001576 0.224144
v -0.077339 -0.015675 0.232006
v -0.062315 -0.001576 0.183471
v -0.077339 -0.015675 0.187402
v -0.062315 -0.001576 0.143228
v -0.077339 -0.015675 0.143228
v -0.066290 -0.132541 0.264818
v -0.066290 -0.132541 0.224144
v -0.066290 -0.132541 0.183471
v -0.066290 -0.132541 0.143228
v 0.022350 0.074019 0.264818
v 0.022350 0.074019 0.224144
v 0.019591 0.073934 0.183471
v 0.084918 -0.101961 0.305491
v 0.165609 -0.132541 0.305491
v 0.165609 -0.066735 0.305491
v 0.084918 0.008738 0.305491
v 0.084918 0.073774 0.264818
v 0.084918 0.073774 0.305491
v 0.161635 -0.001576 0.305491
v 0.088168 0.067092 0.321215
v 0.176658 -0.015675 0.321215
v 0.088168 0.032967 0.321215
v 0.176658 -0.049799 0.276611
v 0.176658 -0.015675 0.276611
v 0.176658 -0.049799 0.321215
v 0.165609 -0.066735 0.264818
v 0.094290 0.083793 0.305491
v 0.097540 0.077111 0.321215
v 0.064230 0.108266 0.321215
v 0.063916 0.112203 0.305491
v 0.084918 -0.101961 0.280692
v 0.084918 -0.174395 0.280726
v 0.084918 -0.174395 0.305491
v 0.063916 0.112203 0.264818
v 0.094290 0.083793 0.264818
v 0.084918 0.073774 0.183471
v 0.094290 0.083793 0.183471
v 0.094290 0.083793 0.224144
v 0.084918 0.073774 0.224144
v 0.063916 0.112203 0.224144
v 0.063916 0.112203 0.183471
v 0.063916 0.112203 0.143228
v 0.094290 0.083793 0.143228
v 0.165609 -0.066735 0.143228
v 0.176658 -0.049799 0.143228
v 0.176658 -0.049799 0.187402
v 0.165609 -0.066735 0.183471
v 0.176658 -0.049799 0.232006
v 0.165609 -0.066735 0.224144
v 0.161635 -0.001576 0.264818
v 0.176658 -0.015675 0.232006
v 0.161635 -0.001576 0.224144
v 0.176658 -0.015675 0.187402
v 0.161635 -0.001576 0.183471
v 0.176658 -0.015675 0.143228
v 0.161635 -0.001576 0.143228
v 0.165609 -0.132541 0.264818
v 0.165609 -0.132541 0.224144
v 0.165609 -0.132541 0.183471
v 0.165609 -0.132541 0.143228
v 0.076969 0.074019 0.264818
v 0.076969 0.074019 0.224144
v 0.076969 0.074019 0.183471
v -0.077339 -0.049799 0.099053
v -0.066290 -0.066735 0.102984
v -0.062315 -0.001576 0.102984
v -0.077339 -0.015675 0.099053
v -0.066290 -0.132541 0.102984
v -0.049766 0.025226 0.118591
v 0.063916 0.112203 0.104988
v 0.165609 -0.066735 0.102984
v 0.176658 -0.049799 0.099053
v 0.165609 -0.066735 0.062311
v 0.176658 -0.049799 0.054449
v 0.161635 -0.001576 0.102984
v 0.176658 -0.015675 0.099053
v 0.176658 -0.015675 0.054449
v 0.165609 -0.132541 0.062311
v 0.165609 -0.132541 0.102984
v 0.005030 0.083793 0.171252
v 0.057975 0.108027 0.124280
v 0.165609 -0.132541 0.054269
v 0.118968 -0.174395 -0.150306
v 0.110331 -0.174395 -0.162215
v -0.141989 -0.174395 -0.170090
v -0.182233 -0.174395 -0.170090
v 0.049660 -0.174395 0.280692
v 0.239763 -0.174395 -0.034105
v -0.082732 -0.174395 -0.170090
v -0.101746 -0.174395 -0.170090
v -0.066290 -0.174395 0.224144
v -0.066290 -0.174395 0.264818
v -0.222906 -0.174395 -0.170090
v -0.263579 -0.174395 -0.170090
v 0.165609 -0.174395 0.054268
v 0.185970 -0.174395 0.030003
v 0.165609 -0.174395 0.183471
v 0.165609 -0.174395 0.143228
v 0.165609 -0.174395 0.224144
v 0.010452 -0.174395 -0.281143
v -0.016444 -0.174395 -0.249089
v 0.212867 -0.174395 -0.002051
v -0.304253 -0.174395 0.061809
v -0.263579 -0.174395 0.061809
v -0.222906 -0.174395 0.061809
v 0.030480 -0.174395 -0.261747
v -0.043341 -0.174395 -0.217035
v -0.070237 -0.174395 -0.184981
v 0.165609 -0.174395 0.102984
v 0.165609 -0.174395 0.062311
v -0.066290 -0.174395 0.305491
v -0.279454 -0.174395 -0.054140
v 0.132195 -0.174395 -0.143869
v -0.141989 -0.174395 0.061809
v -0.101746 -0.174395 0.061809
v -0.066290 -0.174395 0.061809
v -0.066290 -0.174395 0.102984
v -0.304253 -0.174395 -0.170090
v -0.066290 -0.174395 0.183471
v 0.165609 -0.174395 0.305491
v 0.165609 -0.174395 0.264818
v -0.066290 -0.174395 0.143228
v 0.185617 -0.174395 -0.148871
v 0.069135 -0.174395 -0.229311
v -0.182233 -0.174395 0.061809
s off
f 1 2 3
f 3 4 1
f 5 4 3
f 6 7 8
f 5 3 6
f 6 8 5
f 9 10 11
f 11 12 9
f 12 11 13
f 13 5 12
f 4 5 14
f 14 15 4
f 13 16 17
f 17 18 13
f 19 20 21
f 17 15 14
f 14 18 17
f 22 23 15
f 15 17 22
f 1 4 15
f 15 23 1
f 5 13 18
f 18 14 5
f 16 24 22
f 22 17 16
f 24 25 26
f 26 22 24
f 27 28 29
f 29 30 27
f 29 31 32
f 32 33 30
f 32 30 29
f 1 34 35
f 27 36 37
f 38 39 40
f 40 41 42
f 40 42 38
f 43 44 45
f 46 47 43
f 48 49 11
f 11 10 48
f 50 51 52
f 52 53 50
f 49 46 13
f 13 11 49
f 54 50 53
f 53 41 54
f 43 55 56
f 56 46 43
f 57 53 52
f 52 58 59
f 52 59 57
f 42 41 53
f 53 57 60
f 61 42 53
f 53 60 61
f 13 62 63
f 63 16 13
f 64 19 39
f 39 38 65
f 65 66 64
f 39 65 64
f 39 19 21
f 21 67 68
f 68 69 39
f 21 68 39
f 63 62 56
f 56 55 63
f 70 63 55
f 55 71 70
f 45 71 55
f 55 43 45
f 46 56 62
f 62 13 46
f 16 63 70
f 70 24 16
f 24 70 72
f 72 25 24
f 73 74 75
f 75 76 77
f 77 78 73
f 75 77 73
f 73 78 79
f 79 80 73
f 80 79 50
f 50 54 80
f 81 52 51
f 51 82 81
f 82 51 83
f 82 83 84
f 85 86 82
f 82 84 85
f 87 88 89
f 89 90 87
f 90 89 91
f 91 92 90
f 77 93 91
f 91 89 94
f 94 95 77
f 91 94 77
f 79 78 94
f 94 96 97
f 97 98 79
f 94 97 79
f 50 79 98
f 99 83 51
f 50 98 99
f 99 51 50
f 40 100 54
f 54 41 40
f 100 101 80
f 80 54 100
f 101 102 73
f 73 80 101
f 102 103 74
f 74 73 102
f 45 104 105
f 87 106 107
f 81 82 105
f 108 109 110
f 81 105 108
f 110 44 81
f 108 110 81
f 90 111 112
f 113 114 115
f 115 116 113
f 117 118 119
f 118 120 121
f 121 119 118
f 122 123 124
f 124 125 122
f 126 127 121
f 121 128 126
f 123 120 129
f 129 124 123
f 130 126 128
f 128 131 130
f 118 132 133
f 133 120 118
f 128 121 120
f 120 123 128
f 131 128 123
f 123 122 131
f 129 134 135
f 135 136 129
f 113 122 137
f 137 138 113
f 131 122 139
f 139 140 131
f 141 142 143
f 143 144 145
f 143 145 141
f 146 141 145
f 145 113 146
f 113 145 144
f 144 114 113
f 135 134 133
f 133 132 135
f 147 135 132
f 132 148 147
f 117 148 132
f 132 118 117
f 120 133 134
f 134 129 120
f 136 135 147
f 147 149 136
f 149 147 150
f 150 151 149
f 152 153 154
f 154 155 152
f 155 154 126
f 126 130 155
f 119 121 127
f 127 156 119
f 156 127 157
f 157 158 156
f 158 157 159
f 159 160 158
f 160 159 29
f 29 28 160
f 31 29 159
f 159 153 31
f 153 159 157
f 157 154 153
f 154 157 127
f 127 126 154
f 161 162 130
f 130 131 161
f 162 163 155
f 155 130 162
f 163 164 152
f 152 155 163
f 164 165 166
f 167 168 152
f 164 166 167
f 164 167 152
f 117 169 156
f 156 170 171
f 158 172 173
f 156 169 119
f 119 169 117
f 160 174 175
f 176 177 178
f 178 177 179
f 179 180 178
f 181 125 124
f 124 182 181
f 183 184 179
f 179 185 183
f 182 124 129
f 129 180 182
f 186 187 184
f 184 183 186
f 178 180 188
f 188 189 178
f 184 182 180
f 180 179 184
f 187 181 182
f 182 184 187
f 129 136 190
f 190 191 129
f 192 146 193
f 193 194 192
f 122 113 116
f 116 195 122
f 196 142 141
f 141 197 198
f 141 198 196
f 146 192 197
f 197 141 146
f 192 199 198
f 198 197 192
f 190 189 188
f 188 191 190
f 200 201 189
f 189 190 200
f 176 178 189
f 189 201 176
f 180 129 191
f 191 188 180
f 136 149 200
f 200 190 136
f 149 151 202
f 202 200 149
f 74 203 204
f 204 75 74
f 205 206 207
f 207 208 205
f 206 186 183
f 183 207 206
f 177 209 185
f 185 179 177
f 209 210 211
f 211 185 209
f 210 212 213
f 213 211 210
f 212 92 91
f 91 213 212
f 93 208 213
f 213 91 93
f 208 207 211
f 211 213 208
f 207 183 185
f 185 211 207
f 214 187 186
f 186 215 214
f 215 186 206
f 206 216 215
f 216 206 205
f 205 217 216
f 218 217 205
f 205 203 219
f 219 220 218
f 205 219 218
f 176 209 221
f 209 222 223
f 210 224 225
f 209 177 221
f 177 176 221
f 212 226 227
f 193 138 137
f 137 228 193
f 193 228 229
f 229 194 193
f 181 192 194
f 194 229 181
f 146 113 138
f 138 193 146
f 125 181 229
f 229 228 125
f 122 125 228
f 228 137 122
f 230 231 140
f 140 139 230
f 232 233 234
f 234 235 232
f 187 214 235
f 235 234 187
f 214 236 237
f 237 235 214
f 181 187 234
f 234 233 181
f 232 238 239
f 239 240 232
f 161 131 140
f 140 231 161
f 116 115 241
f 241 242 116
f 195 116 242
f 242 243 195
f 244 245 246
f 246 240 244
f 230 139 243
f 243 242 230
f 233 232 240
f 240 246 233
f 139 122 195
f 195 243 139
f 181 233 246
f 246 245 181
f 192 181 245
f 245 244 192
f 247 248 249
f 249 248 250
f 250 251 249
f 252 253 254
f 254 255 252
f 256 257 250
f 250 258 256
f 255 254 259
f 259 251 255
f 260 261 257
f 257 256 260
f 249 251 262
f 262 263 249
f 257 255 251
f 251 250 257
f 261 252 255
f 255 257 261
f 259 264 265
f 265 266 259
f 265 263 262
f 262 266 265
f 267 268 263
f 263 265 267
f 247 249 263
f 263 268 247
f 251 259 266
f 266 262 251
f 269 270 271
f 271 272 269
f 270 273 274
f 274 271 270
f 273 247 268
f 268 274 273
f 264 275 267
f 267 265 264
f 275 276 277
f 277 267 275
f 276 278 279
f 279 277 276
f 278 280 281
f 281 279 278
f 281 272 271
f 271 279 281
f 279 271 274
f 274 277 279
f 277 274 268
f 268 267 277
f 282 283 284
f 284 285 282
f 283 286 287
f 287 284 283
f 286 260 256
f 256 287 286
f 248 288 258
f 258 250 248
f 288 289 290
f 290 258 288
f 289 291 292
f 292 290 289
f 291 293 294
f 294 292 291
f 285 284 292
f 292 294 285
f 284 287 290
f 290 292 284
f 287 256 258
f 258 290 287
f 269 291 270
f 270 289 273
f 273 288 247
f 295 261 260
f 260 296 295
f 296 260 286
f 286 297 296
f 297 286 283
f 283 298 297
f 298 283 282
f 282 299 298
f 247 288 300
f 288 273 301
f 273 289 301
f 289 270 302
f 270 291 302
f 303 293 291
f 302 291 289
f 301 289 288
f 288 248 300
f 248 247 300
f 291 269 303
f 304 305 306
f 305 307 308
f 308 306 305
f 309 310 254
f 254 253 309
f 311 312 308
f 308 313 311
f 310 307 259
f 259 254 310
f 314 311 313
f 313 315 314
f 305 316 317
f 317 307 305
f 313 308 307
f 307 310 313
f 315 313 310
f 310 309 315
f 259 318 319
f 319 264 259
f 319 318 317
f 317 316 319
f 320 319 316
f 316 321 320
f 304 321 316
f 316 305 304
f 307 317 318
f 318 259 307
f 322 323 324
f 324 325 322
f 325 324 326
f 326 327 325
f 327 326 321
f 321 304 327
f 264 319 320
f 320 275 264
f 275 320 328
f 328 276 275
f 276 328 329
f 329 278 276
f 278 329 330
f 330 280 278
f 330 329 324
f 324 323 330
f 329 328 326
f 326 324 329
f 328 320 321
f 321 326 328
f 331 332 333
f 333 334 331
f 334 333 335
f 335 336 334
f 336 335 311
f 311 314 336
f 306 308 312
f 312 337 306
f 337 312 338
f 338 339 337
f 339 338 340
f 340 341 339
f 341 340 342
f 342 343 341
f 332 342 340
f 340 333 332
f 333 340 338
f 338 335 333
f 335 338 312
f 312 311 335
f 322 325 341
f 325 327 339
f 327 304 337
f 344 345 314
f 314 315 344
f 345 346 336
f 336 314 345
f 346 347 334
f 334 336 346
f 347 348 331
f 331 334 347
f 304 349 337
f 337 350 327
f 327 350 339
f 339 351 325
f 325 351 341
f 352 341 343
f 351 339 341
f 350 337 339
f 337 349 306
f 306 349 304
f 341 352 322
f 353 354 355
f 354 356 357
f 357 355 354
f 358 359 360
f 360 361 358
f 362 363 357
f 357 364 362
f 359 356 365
f 365 360 359
f 366 362 364
f 364 367 366
f 354 368 369
f 369 356 354
f 364 357 356
f 356 359 364
f 367 364 359
f 359 358 367
f 365 370 371
f 371 372 365
f 371 370 369
f 369 368 371
f 373 371 368
f 368 374 373
f 353 374 368
f 368 354 353
f 356 369 370
f 370 365 356
f 269 272 375
f 375 376 269
f 376 375 377
f 377 378 376
f 378 377 374
f 374 353 378
f 372 371 373
f 373 379 372
f 379 373 380
f 380 381 379
f 381 380 382
f 382 383 381
f 383 382 281
f 281 280 383
f 281 382 375
f 375 272 281
f 382 380 377
f 377 375 382
f 380 373 374
f 374 377 380
f 282 285 384
f 384 385 282
f 385 384 386
f 386 387 385
f 387 386 362
f 362 366 387
f 355 357 363
f 363 388 355
f 388 363 389
f 389 390 388
f 390 389 391
f 391 392 390
f 392 391 294
f 294 293 392
f 285 294 391
f 391 384 285
f 384 391 389
f 389 386 384
f 386 389 363
f 363 362 386
f 269 376 392
f 376 378 390
f 378 353 388
f 393 394 366
f 366 367 393
f 394 395 387
f 387 366 394
f 395 396 385
f 385 387 395
f 396 299 282
f 282 385 396
f 353 397 388
f 388 398 378
f 378 398 390
f 390 399 376
f 376 399 392
f 303 392 293
f 399 390 392
f 398 388 390
f 388 397 355
f 355 397 353
f 392 303 269
f 400 401 402
f 402 401 403
f 403 404 402
f 405 361 360
f 360 406 405
f 407 408 403
f 403 409 407
f 406 360 365
f 365 404 406
f 410 411 408
f 408 407 410
f 402 404 412
f 412 413 402
f 408 406 404
f 404 403 408
f 411 405 406
f 406 408 411
f 365 372 414
f 414 415 365
f 414 413 412
f 412 415 414
f 416 417 413
f 413 414 416
f 400 402 413
f 413 417 400
f 404 365 415
f 415 412 404
f 322 418 419
f 419 323 322
f 418 420 421
f 421 419 418
f 420 400 417
f 417 421 420
f 372 379 416
f 416 414 372
f 379 381 422
f 422 416 379
f 381 383 423
f 423 422 381
f 383 280 330
f 330 423 383
f 330 323 419
f 419 423 330
f 423 419 421
f 421 422 423
f 422 421 417
f 417 416 422
f 331 424 425
f 425 332 331
f 424 426 427
f 427 425 424
f 426 410 407
f 407 427 426
f 401 428 409
f 409 403 401
f 428 429 430
f 430 409 428
f 429 431 432
f 432 430 429
f 431 343 342
f 342 432 431
f 332 425 432
f 432 342 332
f 425 427 430
f 430 432 425
f 427 407 409
f 409 430 427
f 322 431 418
f 418 429 420
f 420 428 400
f 433 411 410
f 410 434 433
f 434 410 426
f 426 435 434
f 435 426 424
f 424 436 435
f 436 424 331
f 331 348 436
f 400 428 437
f 428 420 438
f 420 429 438
f 429 418 439
f 418 431 439
f 352 343 431
f 439 431 429
f 438 429 428
f 428 401 437
f 401 400 437
f 431 322 352
f 252 440 26
f 26 25 253
f 26 253 252
f 298 441 442
f 442 443 444
f 297 298 442
f 442 444 297
f 445 446 148
f 148 117 445
f 447 111 90
f 90 92 447
f 358 448 446
f 446 445 449
f 449 393 367
f 367 358 446
f 446 449 367
f 450 451 160
f 434 452 453
f 453 454 455
f 455 433 434
f 453 455 434
f 456 457 158
f 346 458 459
f 460 461 347
f 346 459 460
f 460 347 346
f 1 462 463
f 463 464 465
f 466 34 1
f 463 465 466
f 463 466 1
f 467 462 1
f 1 23 467
f 393 468 457
f 456 469 394
f 393 457 456
f 456 394 393
f 460 459 90
f 405 470 202
f 202 151 361
f 202 361 405
f 344 471 472
f 472 473 474
f 472 474 344
f 454 453 210
f 173 469 456
f 456 158 173
f 22 26 440
f 440 467 23
f 440 23 22
f 160 451 475
f 475 172 158
f 475 158 160
f 295 463 462
f 467 440 252
f 295 462 467
f 252 261 295
f 467 252 295
f 200 202 470
f 470 476 201
f 470 201 200
f 477 478 226
f 226 212 477
f 227 447 92
f 92 212 227
f 175 479 450
f 450 160 175
f 309 480 481
f 481 482 471
f 471 344 315
f 315 309 481
f 481 471 315
f 483 484 485
f 485 486 487
f 488 483 485
f 485 487 488
f 489 490 444
f 444 443 27
f 27 491 492
f 492 489 444
f 444 27 492
f 433 455 223
f 222 493 433
f 223 222 433
f 494 477 212
f 71 481 480
f 480 72 70
f 480 70 71
f 345 495 107
f 107 106 458
f 458 346 345
f 107 458 345
f 344 474 496
f 497 495 345
f 344 496 497
f 497 345 344
f 295 498 499
f 464 463 295
f 499 464 295
f 482 481 71
f 71 45 482
f 476 500 176
f 176 201 476
f 348 447 227
f 226 478 436
f 348 227 226
f 226 436 348
f 443 442 27
f 501 86 87
f 436 478 477
f 477 494 502
f 435 436 477
f 477 502 435
f 433 493 500
f 476 470 405
f 433 500 476
f 405 411 433
f 476 405 433
f 442 441 36
f 36 27 442
f 45 105 472
f 503 499 498
f 498 504 505
f 505 506 503
f 498 505 503
f 299 507 37
f 36 441 298
f 299 37 36
f 36 298 299
f 347 461 112
f 112 111 447
f 447 348 347
f 112 447 347
f 396 479 175
f 175 174 507
f 507 299 396
f 175 507 396
f 497 496 87
f 504 484 483
f 483 505 504
f 156 171 449
f 449 445 117
f 449 117 156
f 158 457 468
f 468 170 156
f 468 156 158
f 209 223 455
f 455 454 210
f 455 210 209
f 393 449 171
f 171 170 468
f 171 468 393
f 297 444 490
f 486 485 296
f 297 490 486
f 486 296 297
f 176 500 493
f 493 222 209
f 493 209 176
f 107 495 497
f 497 87 107
f 394 469 173
f 173 172 475
f 475 395 394
f 173 475 394
f 296 485 484
f 484 504 498
f 498 295 296
f 484 498 296
f 507 174 160
f 160 28 507
f 90 459 458
f 458 106 87
f 458 87 90
f 210 225 502
f 502 494 212
f 502 212 210
f 253 25 72
f 72 480 309
f 72 309 253
f 361 151 150
f 150 448 358
f 150 358 361
f 112 461 460
f 460 90 112
f 395 475 451
f 450 479 396
f 395 451 450
f 450 396 395
f 435 502 225
f 224 452 434
f 435 225 224
f 224 434 435
f 453 452 224
f 224 210 453
f 148 446 448
f 448 150 147
f 448 147 148
f 37 507 28
f 28 27 37
f 508 509 510
f 510 511 508
f 512 513 514
f 514 513 515
f 515 516 514
f 509 517 518
f 518 519 509
f 520 521 515
f 515 522 520
f 519 518 523
f 523 516 519
f 524 510 521
f 521 520 524
f 514 516 525
f 525 526 514
f 521 519 516
f 516 515 521
f 510 509 519
f 519 521 510
f 523 527 528
f 528 529 523
f 530 517 509
f 509 508 530
f 530 508 531
f 531 532 530
f 508 533 534
f 534 531 508
f 528 526 525
f 525 529 528
f 535 536 526
f 526 528 535
f 512 514 526
f 526 536 512
f 516 523 529
f 529 525 516
f 537 538 539
f 539 540 537
f 538 512 536
f 536 539 538
f 527 541 535
f 535 528 527
f 541 542 543
f 543 535 541
f 542 544 545
f 545 543 542
f 544 546 547
f 547 545 544
f 547 548 540
f 540 545 547
f 545 540 539
f 539 543 545
f 543 539 536
f 536 535 543
f 549 550 551
f 551 552 549
f 550 553 554
f 554 551 550
f 553 524 520
f 520 554 553
f 513 555 522
f 522 515 513
f 555 556 557
f 557 522 555
f 556 558 559
f 559 557 556
f 558 560 561
f 561 559 558
f 552 551 559
f 559 561 552
f 551 554 557
f 557 559 551
f 554 520 522
f 522 557 554
f 537 556 538
f 538 555 512
f 511 510 524
f 524 562 511
f 562 524 553
f 553 563 562
f 563 553 550
f 550 564 563
f 564 550 549
f 549 565 564
f 512 555 566
f 555 538 567
f 538 556 567
f 556 537 568
f 537 558 568
f 568 558 556
f 567 556 555
f 555 513 566
f 513 512 566
f 558 569 570
f 571 572 573
f 573 574 571
f 575 576 577
f 576 578 579
f 579 577 576
f 574 580 518
f 518 517 574
f 581 582 579
f 579 583 581
f 580 578 523
f 523 518 580
f 584 581 583
f 583 573 584
f 576 585 586
f 586 578 576
f 583 579 578
f 578 580 583
f 573 583 580
f 580 574 573
f 523 587 588
f 588 527 523
f 530 571 574
f 574 517 530
f 530 532 589
f 589 571 530
f 571 589 590
f 590 591 571
f 588 587 586
f 586 585 588
f 592 588 585
f 585 593 592
f 575 593 585
f 585 576 575
f 578 586 587
f 587 523 578
f 594 595 593
f 593 575 594
f 527 588 592
f 592 541 527
f 541 592 596
f 596 542 541
f 542 596 597
f 597 544 542
f 544 597 598
f 598 546 544
f 466 598 597
f 597 599 34
f 597 34 466
f 599 597 596
f 596 595 6
f 3 2 599
f 596 6 3
f 596 3 599
f 596 592 593
f 593 595 596
f 600 601 602
f 602 603 600
f 603 602 604
f 604 605 603
f 605 604 581
f 581 584 605
f 577 579 582
f 582 606 577
f 606 582 607
f 607 608 606
f 608 607 609
f 609 610 608
f 610 609 611
f 611 612 610
f 601 611 609
f 609 602 601
f 602 609 607
f 607 604 602
f 604 607 582
f 582 581 604
f 594 575 606
f 572 613 584
f 584 573 572
f 613 614 605
f 605 584 613
f 614 615 603
f 603 605 614
f 615 616 600
f 600 603 615
f 575 617 606
f 606 618 594
f 594 618 608
f 608 619 620
f 618 606 608
f 606 617 577
f 577 617 575
f 610 621 622
f 548 547 488
f 487 489 492
f 548 488 487
f 487 492 548
f 549 552 623
f 623 624 549
f 624 623 167
f 167 166 624
f 625 626 561
f 561 560 625
f 552 561 626
f 626 623 552
f 623 626 168
f 168 167 623
f 627 565 549
f 549 624 627
f 598 466 465
f 600 628 629
f 629 601 600
f 628 630 20
f 631 632 629
f 628 20 631
f 628 631 629
f 633 68 67
f 601 629 634
f 634 611 601
f 629 632 635
f 635 634 629
f 636 633 630
f 630 637 636
f 638 628 600
f 600 616 638
f 152 168 639
f 625 640 31
f 152 639 625
f 31 153 152
f 625 31 152
f 641 642 643
f 643 612 641
f 546 506 505
f 483 488 547
f 546 505 483
f 483 547 546
f 610 644 645
f 645 619 608
f 645 608 610
f 492 491 548
f 645 644 646
f 622 621 9
f 12 645 646
f 646 622 9
f 646 9 12
f 642 9 621
f 621 643 642
f 30 33 647
f 647 570 569
f 569 648 30
f 647 569 30
f 624 166 165
f 165 649 627
f 165 627 624
f 646 644 610
f 560 647 33
f 32 640 625
f 560 33 32
f 32 625 560
f 503 465 464
f 464 499 503
f 608 620 8
f 8 7 594
f 8 594 608
f 34 599 2
f 2 35 34
f 639 168 626
f 626 625 639
f 622 646 610
f 2 1 35
f 537 650 648
f 648 569 558
f 648 558 537
f 634 651 641
f 641 612 611
f 641 611 634
f 643 621 610
f 610 612 643
f 7 6 595
f 595 594 7
f 5 8 620
f 620 619 645
f 645 12 5
f 620 645 5
f 640 32 31
f 570 647 560
f 560 558 570
f 30 648 650
f 650 491 27
f 650 27 30
f 635 651 634
f 465 503 506
f 506 546 598
f 506 598 465
f 548 491 650
f 650 537 540
f 650 540 548
f 489 487 486
f 486 490 489
f 652 653 654
f 654 655 652
f 656 657 658
f 658 657 659
f 659 660 658
f 653 661 662
f 662 663 653
f 664 665 659
f 659 666 664
f 663 662 667
f 667 660 663
f 668 654 665
f 665 664 668
f 658 660 669
f 669 670 658
f 665 663 660
f 660 659 665
f 654 653 663
f 663 665 654
f 667 671 672
f 672 673 667
f 674 661 653
f 653 652 674
f 674 652 675
f 675 676 674
f 652 677 678
f 678 675 652
f 672 670 669
f 669 673 672
f 679 680 670
f 670 672 679
f 656 658 670
f 670 680 656
f 660 667 673
f 673 669 660
f 681 682 683
f 683 684 681
f 682 656 680
f 680 683 682
f 671 685 679
f 679 672 671
f 685 686 687
f 687 679 685
f 686 688 689
f 689 687 686
f 688 690 110
f 110 689 688
f 689 110 44
f 47 691 689
f 44 47 689
f 687 683 680
f 680 679 687
f 692 693 694
f 694 695 692
f 693 696 697
f 697 694 693
f 696 668 664
f 664 697 696
f 657 698 666
f 666 659 657
f 698 699 700
f 700 666 698
f 699 701 702
f 702 700 699
f 701 703 704
f 704 702 701
f 695 694 702
f 702 704 695
f 694 697 700
f 700 702 694
f 697 664 666
f 666 700 697
f 681 699 682
f 682 698 656
f 655 654 668
f 668 705 655
f 705 668 696
f 696 706 705
f 706 696 693
f 693 707 706
f 707 693 692
f 692 708 707
f 656 698 709
f 698 682 710
f 682 699 710
f 699 681 711
f 711 58 699
f 681 701 58
f 58 711 681
f 710 699 698
f 698 657 709
f 657 656 709
f 701 60 61
f 712 713 714
f 714 715 712
f 716 717 718
f 717 719 720
f 720 718 717
f 715 721 662
f 662 661 715
f 722 723 720
f 720 724 722
f 721 719 667
f 667 662 721
f 725 722 724
f 724 714 725
f 717 726 727
f 727 719 717
f 724 720 719
f 719 721 724
f 714 724 721
f 721 715 714
f 667 728 729
f 729 671 667
f 674 712 715
f 715 661 674
f 674 676 730
f 730 712 674
f 712 730 731
f 731 732 712
f 729 728 727
f 727 726 729
f 733 729 726
f 726 734 733
f 716 734 726
f 726 717 716
f 719 727 728
f 728 667 719
f 735 736 737
f 737 738 735
f 738 737 734
f 734 716 738
f 671 729 733
f 733 685 671
f 685 733 739
f 739 686 685
f 686 739 740
f 740 688 686
f 688 740 741
f 741 690 688
f 741 740 736
f 736 742 741
f 740 739 737
f 737 736 740
f 739 733 734
f 734 737 739
f 743 744 745
f 745 746 743
f 746 745 747
f 747 748 746
f 748 747 722
f 722 725 748
f 718 720 723
f 723 749 718
f 749 723 750
f 750 751 749
f 751 750 752
f 752 753 751
f 753 752 754
f 754 755 753
f 744 754 752
f 752 745 744
f 745 752 750
f 750 747 745
f 747 750 723
f 723 722 747
f 735 738 751
f 738 716 749
f 713 756 725
f 725 714 713
f 756 757 748
f 748 725 756
f 757 758 746
f 746 748 757
f 758 759 743
f 743 746 758
f 716 760 749
f 749 761 738
f 738 761 751
f 751 762 735
f 735 762 753
f 762 751 753
f 761 749 751
f 749 760 718
f 718 760 716
f 753 99 83
f 692 695 763
f 763 764 692
f 630 764 763
f 763 19 20
f 763 20 630
f 765 766 704
f 704 703 765
f 695 704 766
f 766 763 695
f 763 766 64
f 64 19 763
f 637 767 764
f 764 630 637
f 767 708 692
f 692 764 767
f 765 38 768
f 741 742 501
f 501 769 741
f 743 770 771
f 771 744 743
f 770 772 773
f 773 771 770
f 772 220 219
f 219 773 772
f 774 755 754
f 754 775 774
f 744 771 775
f 775 754 744
f 771 773 776
f 776 775 771
f 773 219 203
f 203 776 773
f 777 772 770
f 770 778 777
f 778 770 743
f 743 759 778
f 774 96 97
f 203 204 776
f 60 49 48
f 691 46 49
f 52 691 779
f 779 59 58
f 779 58 52
f 103 218 220
f 220 219 203
f 74 103 220
f 220 203 74
f 768 38 65
f 65 765 768
f 741 769 780
f 780 105 108
f 108 690 741
f 780 108 741
f 95 94 96
f 96 774 95
f 58 701 699
f 97 98 755
f 755 774 97
f 94 78 77
f 681 59 57
f 57 60 701
f 57 701 681
f 75 93 77
f 44 47 81
f 76 77 95
f 95 774 76
f 93 75 204
f 204 203 205
f 205 208 93
f 204 205 93
f 44 104 45
f 637 630 628
f 628 638 637
f 42 38 765
f 765 703 42
f 65 66 765
f 85 84 83
f 776 204 75
f 75 76 774
f 774 775 776
f 75 774 776
f 66 64 766
f 766 765 66
f 83 99 98
f 98 88 83
f 110 690 108
f 691 779 684
f 83 735 753
f 47 691 52
f 52 81 47
f 64 10 9
f 9 642 641
f 9 641 651
f 19 64 9
f 632 631 19
f 9 651 635
f 635 632 19
f 19 9 635
f 98 99 753
f 753 755 98
f 780 473 472
f 96 89 88
f 82 86 501
f 501 769 780
f 501 780 82
f 20 19 631
f 779 59 681
f 681 684 779
f 777 781 218
f 218 220 772
f 218 772 777
f 109 105 104
f 61 42 703
f 703 701 61
f 21 20 630
f 630 633 67
f 630 67 21
f 735 84 85
f 85 742 736
f 85 736 735
f 780 105 82
f 65 48 10
f 85 86 501
f 501 742 85
f 782 783 142
f 784 785 564
f 564 565 784
f 678 786 676
f 676 675 678
f 787 236 214
f 214 215 787
f 788 789 627
f 627 649 788
f 237 238 232
f 232 235 237
f 790 791 705
f 705 706 790
f 792 793 562
f 562 563 792
f 783 143 142
f 781 794 795
f 795 217 218
f 795 218 781
f 786 731 730
f 730 676 786
f 796 797 759
f 759 758 796
f 798 796 758
f 758 757 798
f 799 800 162
f 162 161 799
f 801 787 215
f 215 216 801
f 802 803 613
f 613 572 802
f 803 804 614
f 614 613 803
f 805 799 161
f 161 231 805
f 806 807 164
f 164 163 806
f 808 809 777
f 777 778 808
f 785 792 563
f 563 564 785
f 810 677 652
f 652 655 810
f 534 811 532
f 532 531 534
f 811 590 589
f 589 532 811
f 800 806 163
f 163 162 800
f 196 812 142
f 813 814 638
f 638 616 813
f 814 815 637
f 637 638 814
f 815 816 767
f 767 637 815
f 793 817 511
f 511 562 793
f 164 807 788
f 649 165 164
f 788 649 164
f 818 790 706
f 706 707 818
f 819 820 756
f 756 713 819
f 816 821 708
f 708 767 816
f 817 533 508
f 508 511 817
f 795 801 216
f 216 217 795
f 822 199 192
f 192 244 822
f 820 798 757
f 757 756 820
f 732 819 713
f 713 712 732
f 809 794 781
f 781 777 809
f 791 810 655
f 655 705 791
f 591 802 572
f 572 571 591
f 812 782 142
f 241 823 230
f 230 242 241
f 239 822 244
f 244 240 239
f 823 805 231
f 231 230 823
f 804 824 615
f 615 614 804
f 789 784 565
f 565 627 789
f 824 813 616
f 616 615 824
f 821 818 707
f 707 708 821
f 797 808 778
f 778 759 797
f 237 236 787
f 801 795 794
f 237 787 801
f 822 239 238
f 238 237 801
f 238 801 794
f 199 822 238
f 812 196 198
f 198 199 238
f 198 238 794
f 782 812 198
f 143 783 782
f 144 143 782
f 782 198 794
f 809 808 797
f 782 794 809
f 144 782 809
f 797 796 798
f 144 809 797
f 241 115 114
f 144 797 798
f 241 114 144
f 823 241 144
f 144 798 820
f 820 819 732
f 820 732 731
f 823 144 820
f 800 799 805
f 805 823 820
f 820 731 786
f 678 677 810
f 820 786 678
f 800 805 820
f 807 806 800
f 784 789 788
f 807 800 820
f 785 784 788
f 788 807 820
f 678 810 791
f 788 820 678
f 793 792 785
f 678 791 790
f 790 818 821
f 678 790 821
f 793 785 788
f 533 817 793
f 534 533 793
f 678 821 816
f 815 814 813
f 678 816 815
f 534 793 788
f 811 534 788
f 788 678 815
f 815 813 824
f 824 804 803
f 803 802 591
f 590 811 788
f 803 591 590
f 788 815 824
f 824 803 590
f 824 590 788
f 687 689 691
f 691 684 683
f 691 683 687
f 48 38 42
f 88 98 96
f 98 97 96
f 96 94 89
f 10 64 66
f 65 38 48
f 10 66 65
f 48 42 60
f 42 61 60
f 60 57 49
f 49 57 779
f 57 59 779
f 779 691 49
f 46 691 47
f 43 47 44
f 104 44 110
f 109 108 105
f 104 110 109
f 780 472 105
f 472 471 45
f 471 482 45
f 87 496 501
f 496 474 769
f 501 496 769
f 474 473 780
f 474 780 769
f 87 86 88
f 86 85 83
f 88 86 83
f 83 84 735
