# Blender v2.79 (sub 0) OBJ File: 'tiles.blend'
# www.blender.org
o Village
v -0.028134 -0.038226 0.129472
v -0.028134 0.050102 0.129472
v -0.092519 -0.010119 0.129472
v -0.092519 -0.062627 0.129472
v -0.028134 0.101995 0.097018
v -0.089347 0.041872 0.129472
v -0.028134 0.101995 0.129472
v -0.101335 0.030623 0.142019
v -0.030728 0.096663 0.142019
v -0.000001 0.072770 0.129472
v -0.000001 0.094294 0.142019
v -0.030728 0.069435 0.142019
v -0.101335 0.003394 0.106428
v -0.101335 0.003394 0.142019
v -0.101335 0.030623 0.106428
v -0.000001 0.121522 0.142019
v -0.092519 -0.010119 0.097018
v -0.038205 0.104658 0.142019
v -0.035612 0.109990 0.129472
v -0.000001 0.124663 0.129472
v -0.011376 0.132658 0.129472
v -0.011627 0.129517 0.142019
v -0.000001 -0.029041 0.129472
v -0.092519 -0.098395 0.129472
v -0.028134 -0.098395 0.129472
v -0.000001 -0.098395 0.109685
v -0.000001 -0.029041 0.109685
v -0.028134 -0.038226 0.109685
v -0.028134 -0.098635 0.109713
v -0.011376 0.132658 0.097018
v -0.035612 0.109990 0.097018
v -0.028134 0.101995 -0.000000
v -0.028134 0.101995 0.032111
v -0.035612 0.109990 0.032111
v -0.035612 0.109990 -0.000000
v -0.028134 0.101995 0.064565
v -0.035612 0.109990 0.064565
v -0.000001 0.124663 0.097018
v -0.000001 0.124663 0.064565
v -0.011376 0.132658 0.064565
v -0.000001 0.124663 0.032111
v -0.011376 0.132658 0.032111
v -0.000001 0.124663 -0.000000
v -0.011376 0.132658 -0.000000
v -0.092519 -0.062627 0.097018
v -0.092519 -0.098395 0.097018
v -0.092519 -0.062627 0.064565
v -0.092519 -0.098395 0.064565
v -0.092519 -0.062627 0.032111
v -0.092519 -0.098395 0.032111
v -0.092519 -0.062627 -0.000000
v -0.092519 -0.098395 -0.000000
v -0.092519 -0.010119 -0.000000
v -0.092519 -0.010119 0.032111
v -0.101335 0.003394 0.035247
v -0.101335 0.003394 -0.000000
v -0.092519 -0.010119 0.064565
v -0.101335 0.003394 0.070838
v -0.089347 0.041872 0.097018
v -0.089347 0.041872 0.064565
v -0.101335 0.030623 0.070838
v -0.089347 0.041872 0.032111
v -0.101335 0.030623 0.035247
v -0.089347 0.041872 -0.000000
v -0.101335 0.030623 -0.000000
v -0.021792 0.102190 0.097018
v -0.021792 0.102190 0.064565
v -0.021792 0.102190 0.032111
v -0.021792 0.102190 -0.000000
v -0.000001 -0.098395 0.064565
v -0.000001 -0.098395 0.032111
v -0.000001 -0.098395 -0.000000
v 0.028132 -0.038226 0.129472
v 0.092517 -0.062627 0.129472
v 0.092517 -0.010119 0.129472
v 0.028132 0.050102 0.129472
v 0.028132 0.101995 0.097018
v 0.028132 0.101995 0.129472
v 0.089345 0.041872 0.129472
v 0.030726 0.096663 0.142019
v 0.101333 0.030623 0.142019
v 0.030726 0.069435 0.142019
v 0.101333 0.003394 0.106428
v 0.101333 0.030623 0.106428
v 0.101333 0.003394 0.142019
v 0.092517 -0.010119 0.097018
v 0.035610 0.109990 0.129472
v 0.038203 0.104658 0.142019
v 0.011625 0.129517 0.142019
v 0.011374 0.132658 0.129472
v 0.028132 -0.098395 0.129472
v 0.092517 -0.098395 0.129472
v 0.028132 -0.098635 0.109713
v 0.028132 -0.038226 0.109685
v 0.011374 0.132658 0.097018
v 0.035610 0.109990 0.097018
v 0.028132 0.101995 -0.000000
v 0.035610 0.109990 -0.000000
v 0.035610 0.109990 0.032111
v 0.028132 0.101995 0.032111
v 0.035610 0.109990 0.064565
v 0.028132 0.101995 0.064565
v 0.011374 0.132658 0.064565
v 0.011374 0.132658 0.032111
v 0.011374 0.132658 -0.000000
v 0.092517 -0.098395 0.097018
v 0.092517 -0.062627 0.097018
v 0.092517 -0.098395 0.064565
v 0.092517 -0.062627 0.064565
v 0.092517 -0.098395 0.032111
v 0.092517 -0.062627 0.032111
v 0.092517 -0.098395 -0.000000
v 0.092517 -0.062627 -0.000000
v 0.092517 -0.010119 -0.000000
v 0.101333 0.003394 -0.000000
v 0.101333 0.003394 0.035247
v 0.092517 -0.010119 0.032111
v 0.101333 0.003394 0.070838
v 0.092517 -0.010119 0.064565
v 0.089345 0.041872 0.097018
v 0.101333 0.030623 0.070838
v 0.089345 0.041872 0.064565
v 0.101333 0.030623 0.035247
v 0.089345 0.041872 0.032111
v 0.101333 0.030623 -0.000000
v 0.089345 0.041872 -0.000000
v 0.021790 0.102190 0.097018
v 0.021790 0.102190 0.064565
v 0.021790 0.102190 0.032111
v 0.021790 0.102190 -0.000000
v -0.028134 -0.038226 -0.129472
v -0.092519 -0.062627 -0.129472
v -0.092519 -0.010119 -0.129472
v -0.028134 0.050102 -0.129472
v -0.028134 0.101995 -0.097019
v -0.028134 0.101995 -0.129472
v -0.089347 0.041872 -0.129472
v -0.030728 0.096663 -0.142019
v -0.101335 0.030623 -0.142019
v -0.030728 0.069435 -0.142019
v -0.000001 0.094294 -0.142019
v -0.000001 0.072770 -0.129472
v -0.101335 0.003394 -0.106428
v -0.101335 0.030623 -0.106428
v -0.101335 0.003394 -0.142019
v -0.000001 0.121522 -0.142019
v -0.092519 -0.010119 -0.097019
v -0.035612 0.109990 -0.129472
v -0.038205 0.104658 -0.142019
v -0.011627 0.129517 -0.142019
v -0.011376 0.132658 -0.129472
v -0.000001 0.124663 -0.129472
v -0.000001 -0.029041 -0.129472
v -0.028134 -0.098395 -0.129472
v -0.092519 -0.098395 -0.129472
v -0.000001 -0.098395 -0.109685
v -0.028134 -0.098635 -0.109713
v -0.028134 -0.038226 -0.109685
v -0.000001 -0.029041 -0.109685
v -0.011376 0.132658 -0.097019
v -0.035612 0.109990 -0.097019
v -0.035612 0.109990 -0.032111
v -0.028134 0.101995 -0.032111
v -0.035612 0.109990 -0.064565
v -0.028134 0.101995 -0.064565
v -0.000001 0.124663 -0.097019
v -0.011376 0.132658 -0.064565
v -0.000001 0.124663 -0.064565
v -0.011376 0.132658 -0.032111
v -0.000001 0.124663 -0.032111
v -0.092519 -0.098395 -0.097019
v -0.092519 -0.062627 -0.097019
v -0.092519 -0.098395 -0.064565
v -0.092519 -0.062627 -0.064565
v -0.092519 -0.098395 -0.032111
v -0.092519 -0.062627 -0.032111
v -0.101335 0.003394 -0.035248
v -0.092519 -0.010119 -0.032111
v -0.101335 0.003394 -0.070838
v -0.092519 -0.010119 -0.064565
v -0.089347 0.041872 -0.097019
v -0.101335 0.030623 -0.070838
v -0.089347 0.041872 -0.064565
v -0.101335 0.030623 -0.035248
v -0.089347 0.041872 -0.032111
v -0.021792 0.102190 -0.097019
v -0.021792 0.102190 -0.064565
v -0.021792 0.102190 -0.032111
v -0.000001 -0.098395 -0.064565
v -0.000001 -0.098395 -0.032111
v 0.028132 -0.038226 -0.129472
v 0.028132 0.050102 -0.129472
v 0.092517 -0.010119 -0.129472
v 0.092517 -0.062627 -0.129472
v 0.028132 0.101995 -0.097019
v 0.089345 0.041872 -0.129472
v 0.028132 0.101995 -0.129472
v 0.101333 0.030623 -0.142019
v 0.030726 0.096663 -0.142019
v 0.030726 0.069435 -0.142019
v 0.101333 0.003394 -0.106428
v 0.101333 0.003394 -0.142019
v 0.101333 0.030623 -0.106428
v 0.092517 -0.010119 -0.097019
v 0.038203 0.104658 -0.142019
v 0.035610 0.109990 -0.129472
v 0.011374 0.132658 -0.129472
v 0.011625 0.129517 -0.142019
v 0.028132 -0.098395 -0.129472
v 0.092517 -0.098395 -0.129472
v 0.028132 -0.038226 -0.109685
v 0.028132 -0.098635 -0.109713
v 0.011374 0.132658 -0.097019
v 0.035610 0.109990 -0.097019
v 0.028132 0.101995 -0.032111
v 0.035610 0.109990 -0.032111
v 0.028132 0.101995 -0.064565
v 0.035610 0.109990 -0.064565
v 0.011374 0.132658 -0.064565
v 0.011374 0.132658 -0.032111
v 0.092517 -0.062627 -0.097019
v 0.092517 -0.098395 -0.097019
v 0.092517 -0.062627 -0.064565
v 0.092517 -0.098395 -0.064565
v 0.092517 -0.062627 -0.032111
v 0.092517 -0.098395 -0.032111
v 0.092517 -0.010119 -0.032111
v 0.101333 0.003394 -0.035248
v 0.092517 -0.010119 -0.064565
v 0.101333 0.003394 -0.070838
v 0.089345 0.041872 -0.097019
v 0.089345 0.041872 -0.064565
v 0.101333 0.030623 -0.070838
v 0.089345 0.041872 -0.032111
v 0.101333 0.030623 -0.035248
v 0.021790 0.102190 -0.097019
v 0.021790 0.102190 -0.064565
v 0.021790 0.102190 -0.032111
s off
f 1 2 3
f 3 4 1
f 5 6 7
f 7 6 8
f 8 9 7
f 2 10 11
f 11 12 2
f 13 14 8
f 8 15 13
f 12 11 16
f 16 9 12
f 17 3 14
f 14 13 17
f 7 9 18
f 18 19 7
f 14 12 9
f 9 8 14
f 3 2 12
f 12 14 3
f 16 20 21
f 21 22 16
f 23 10 2
f 2 1 23
f 4 24 25
f 25 1 4
f 26 27 28
f 28 29 26
f 23 1 28
f 28 27 23
f 1 25 29
f 29 28 1
f 21 19 18
f 18 22 21
f 30 31 19
f 19 21 30
f 5 7 19
f 19 31 5
f 9 16 22
f 22 18 9
f 32 33 34
f 34 35 32
f 33 36 37
f 37 34 33
f 36 5 31
f 31 37 36
f 20 38 30
f 30 21 20
f 38 39 40
f 40 30 38
f 39 41 42
f 42 40 39
f 41 43 44
f 44 42 41
f 44 35 34
f 34 42 44
f 42 34 37
f 37 40 42
f 40 37 31
f 31 30 40
f 24 4 45
f 45 46 24
f 46 45 47
f 47 48 46
f 48 47 49
f 49 50 48
f 50 49 51
f 51 52 50
f 53 54 55
f 55 56 53
f 54 57 58
f 58 55 54
f 57 17 13
f 13 58 57
f 6 59 15
f 15 8 6
f 59 60 61
f 61 15 59
f 60 62 63
f 63 61 60
f 62 64 65
f 65 63 62
f 56 55 63
f 63 65 56
f 55 58 61
f 61 63 55
f 58 13 15
f 15 61 58
f 32 62 33
f 33 60 36
f 36 59 5
f 4 3 17
f 17 45 4
f 45 17 57
f 57 47 45
f 47 57 54
f 54 49 47
f 49 54 53
f 53 51 49
f 5 59 66
f 59 36 67
f 36 60 67
f 60 33 68
f 33 62 68
f 69 64 62
f 68 62 60
f 67 60 59
f 59 6 66
f 6 5 66
f 62 32 69
f 24 46 29
f 29 25 24
f 29 46 26
f 46 48 70
f 70 26 46
f 48 50 71
f 71 70 48
f 50 52 72
f 72 71 50
f 73 74 75
f 75 76 73
f 77 78 79
f 78 80 81
f 81 79 78
f 76 82 11
f 11 10 76
f 83 84 81
f 81 85 83
f 82 80 16
f 16 11 82
f 86 83 85
f 85 75 86
f 78 87 88
f 88 80 78
f 85 81 80
f 80 82 85
f 75 85 82
f 82 76 75
f 16 89 90
f 90 20 16
f 23 73 76
f 76 10 23
f 91 92 74
f 74 73 91
f 26 93 94
f 94 27 26
f 23 27 94
f 94 73 23
f 73 94 93
f 93 91 73
f 90 89 88
f 88 87 90
f 95 90 87
f 87 96 95
f 77 96 87
f 87 78 77
f 80 88 89
f 89 16 80
f 97 98 99
f 99 100 97
f 100 99 101
f 101 102 100
f 102 101 96
f 96 77 102
f 20 90 95
f 95 38 20
f 38 95 103
f 103 39 38
f 39 103 104
f 104 41 39
f 41 104 105
f 105 43 41
f 105 104 99
f 99 98 105
f 104 103 101
f 101 99 104
f 103 95 96
f 96 101 103
f 92 106 107
f 107 74 92
f 106 108 109
f 109 107 106
f 108 110 111
f 111 109 108
f 110 112 113
f 113 111 110
f 114 115 116
f 116 117 114
f 117 116 118
f 118 119 117
f 119 118 83
f 83 86 119
f 79 81 84
f 84 120 79
f 120 84 121
f 121 122 120
f 122 121 123
f 123 124 122
f 124 123 125
f 125 126 124
f 115 125 123
f 123 116 115
f 116 123 121
f 121 118 116
f 118 121 84
f 84 83 118
f 97 100 124
f 100 102 122
f 102 77 120
f 74 107 86
f 86 75 74
f 107 109 119
f 119 86 107
f 109 111 117
f 117 119 109
f 111 113 114
f 114 117 111
f 77 127 120
f 120 128 102
f 102 128 122
f 122 129 100
f 100 129 124
f 130 124 126
f 129 122 124
f 128 120 122
f 120 127 79
f 79 127 77
f 124 130 97
f 92 91 93
f 93 106 92
f 93 26 106
f 106 26 70
f 70 108 106
f 108 70 71
f 71 110 108
f 110 71 72
f 72 112 110
f 131 132 133
f 133 134 131
f 135 136 137
f 136 138 139
f 139 137 136
f 134 140 141
f 141 142 134
f 143 144 139
f 139 145 143
f 140 138 146
f 146 141 140
f 147 143 145
f 145 133 147
f 136 148 149
f 149 138 136
f 145 139 138
f 138 140 145
f 133 145 140
f 140 134 133
f 146 150 151
f 151 152 146
f 153 131 134
f 134 142 153
f 154 155 132
f 132 131 154
f 156 157 158
f 158 159 156
f 153 159 158
f 158 131 153
f 131 158 157
f 157 154 131
f 151 150 149
f 149 148 151
f 160 151 148
f 148 161 160
f 135 161 148
f 148 136 135
f 138 149 150
f 150 146 138
f 32 35 162
f 162 163 32
f 163 162 164
f 164 165 163
f 165 164 161
f 161 135 165
f 152 151 160
f 160 166 152
f 166 160 167
f 167 168 166
f 168 167 169
f 169 170 168
f 170 169 44
f 44 43 170
f 44 169 162
f 162 35 44
f 169 167 164
f 164 162 169
f 167 160 161
f 161 164 167
f 155 171 172
f 172 132 155
f 171 173 174
f 174 172 171
f 173 175 176
f 176 174 173
f 175 52 51
f 51 176 175
f 53 56 177
f 177 178 53
f 178 177 179
f 179 180 178
f 180 179 143
f 143 147 180
f 137 139 144
f 144 181 137
f 181 144 182
f 182 183 181
f 183 182 184
f 184 185 183
f 185 184 65
f 65 64 185
f 56 65 184
f 184 177 56
f 177 184 182
f 182 179 177
f 179 182 144
f 144 143 179
f 32 163 185
f 163 165 183
f 165 135 181
f 132 172 147
f 147 133 132
f 172 174 180
f 180 147 172
f 174 176 178
f 178 180 174
f 176 51 53
f 53 178 176
f 135 186 181
f 181 187 165
f 165 187 183
f 183 188 163
f 163 188 185
f 69 185 64
f 188 183 185
f 187 181 183
f 181 186 137
f 137 186 135
f 185 69 32
f 155 154 157
f 157 171 155
f 157 156 171
f 171 156 189
f 189 173 171
f 173 189 190
f 190 175 173
f 175 190 72
f 72 52 175
f 191 192 193
f 193 194 191
f 195 196 197
f 197 196 198
f 198 199 197
f 192 142 141
f 141 200 192
f 201 202 198
f 198 203 201
f 200 141 146
f 146 199 200
f 204 193 202
f 202 201 204
f 197 199 205
f 205 206 197
f 202 200 199
f 199 198 202
f 193 192 200
f 200 202 193
f 146 152 207
f 207 208 146
f 153 142 192
f 192 191 153
f 209 191 194
f 194 210 209
f 156 159 211
f 211 212 156
f 153 191 211
f 211 159 153
f 191 209 212
f 212 211 191
f 207 206 205
f 205 208 207
f 213 214 206
f 206 207 213
f 195 197 206
f 206 214 195
f 199 146 208
f 208 205 199
f 97 215 216
f 216 98 97
f 215 217 218
f 218 216 215
f 217 195 214
f 214 218 217
f 152 166 213
f 213 207 152
f 166 168 219
f 219 213 166
f 168 170 220
f 220 219 168
f 170 43 105
f 105 220 170
f 105 98 216
f 216 220 105
f 220 216 218
f 218 219 220
f 219 218 214
f 214 213 219
f 210 194 221
f 221 222 210
f 222 221 223
f 223 224 222
f 224 223 225
f 225 226 224
f 226 225 113
f 113 112 226
f 114 227 228
f 228 115 114
f 227 229 230
f 230 228 227
f 229 204 201
f 201 230 229
f 196 231 203
f 203 198 196
f 231 232 233
f 233 203 231
f 232 234 235
f 235 233 232
f 234 126 125
f 125 235 234
f 115 228 235
f 235 125 115
f 228 230 233
f 233 235 228
f 230 201 203
f 203 233 230
f 97 234 215
f 215 232 217
f 217 231 195
f 194 193 204
f 204 221 194
f 221 204 229
f 229 223 221
f 223 229 227
f 227 225 223
f 225 227 114
f 114 113 225
f 195 231 236
f 231 217 237
f 217 232 237
f 232 215 238
f 215 234 238
f 130 126 234
f 238 234 232
f 237 232 231
f 231 196 236
f 196 195 236
f 234 97 130
f 210 222 212
f 212 209 210
f 212 222 156
f 222 224 189
f 189 156 222
f 224 226 190
f 190 189 224
f 226 112 72
f 72 190 226
